<svg width="546" height="180" viewBox="0 0 546 180" fill="none" xmlns="http://www.w3.org/2000/svg">
<g clip-path="url(#clip0_134_321)">
<path d="M484.705 52.516H423.203C419.019 52.516 415.958 53.3761 414.021 55.1091C412.083 56.8421 411.115 60.154 411.115 65.0578V68.5109C411.115 72.4262 411.941 75.199 413.607 76.8549C415.273 78.5109 418.386 79.3325 422.971 79.3325H462.491C470.628 79.3325 476.388 80.8216 479.746 83.7997C483.116 86.7779 484.808 91.656 484.808 98.4596V103.787C484.808 107.266 484.395 110.231 483.581 112.709C482.768 115.186 481.489 117.202 479.746 118.793C478.002 120.372 475.69 121.515 472.823 122.208C469.956 122.901 466.508 123.248 462.478 123.248H402.371V115.16H462.478C467.36 115.16 470.847 114.352 472.939 112.734C475.032 111.117 476.078 108.151 476.078 103.838V98.5237C476.078 94.3646 475.032 91.4506 472.939 89.7946C470.847 88.1386 467.36 87.3171 462.478 87.3171H422.493C418.541 87.3171 415.26 86.932 412.664 86.1617C410.069 85.3915 408.015 84.2362 406.504 82.6958C404.993 81.1553 403.947 79.2169 403.366 76.8549C402.784 74.5058 402.487 71.7587 402.487 68.6008V65.1348C402.487 57.6637 404.011 52.3492 407.085 49.1913C410.146 46.0334 415.286 44.4544 422.493 44.4544H484.692V52.5417L484.705 52.516Z" fill="white"/>
<path d="M391.935 22.3107C360.681 53.3633 359.48 102.516 389.223 132.092C418.98 161.669 468.432 160.462 499.673 129.41C511.4 117.754 518.891 103.556 522.107 88.7933C522.417 112.234 513.596 135.764 495.605 153.646C460.244 188.793 402.9 188.793 367.539 153.646C332.177 118.498 332.177 61.5019 367.539 26.3415C385.542 8.45956 409.216 -0.308087 432.799 6.00703e-07C417.947 3.19641 403.662 10.6418 391.935 22.2978" fill="white"/>
<path d="M532.788 73.1579L537.825 66.1746L546 68.7805L540.95 61.8999L546 55.0193L537.864 57.6252L532.788 50.7702V59.2683L524.845 61.8999L532.788 64.5571V73.1579Z" fill="#12B46E"/>
<path d="M514.706 48.4467L510.716 42.9268L504.245 44.9807L508.236 39.5379L504.245 34.0822L510.69 36.1361L514.706 30.7189V37.4454L520.996 39.5379L514.706 41.6431V48.4467Z" fill="#EE3930"/>
<path d="M534.054 27.9461L529.843 24.7497L525.517 27.7279L527.247 22.7856L523.05 19.6406L528.293 19.7304L530.037 14.8139L531.561 19.7946L536.701 19.9358L532.517 22.9012L534.054 27.9461Z" fill="white"/>
<path d="M53.1845 150.026C42.8266 150.026 34.2509 149.32 27.4446 147.92C20.6384 146.521 15.2011 144.275 11.1328 141.181C7.06458 138.1 4.19742 134.056 2.51845 129.063C0.839483 124.069 0 117.92 0 110.629V35.1861H16.8026V110.629C16.8026 115.674 17.3708 119.949 18.5074 123.427C19.6439 126.906 21.6199 129.743 24.4613 131.926C27.2897 134.121 31.1642 135.712 36.059 136.727C40.9539 137.741 47.1531 138.241 54.6697 138.241H139.135V150.026H53.1845Z" fill="#EE3930"/>
<path d="M156.803 150.026V35.353H267.64C277.998 35.353 286.639 36.0591 293.6 37.4583C300.548 38.8575 306.076 41.104 310.196 44.1849C314.303 47.2657 317.222 51.335 318.913 56.38C320.618 61.4249 321.471 67.5353 321.471 74.7112V110.693C321.471 117.985 320.618 124.121 318.913 129.101C317.209 134.095 314.303 138.126 310.196 141.207C306.076 144.288 300.548 146.534 293.6 147.933C286.651 149.332 277.998 150.039 267.64 150.039H156.803V150.026ZM267.576 138.241C274.253 138.241 279.936 137.818 284.624 136.983C289.312 136.136 293.109 134.647 296.028 132.516C298.947 130.385 301.039 127.574 302.317 124.095C303.596 120.616 304.229 116.187 304.229 110.796V74.5956C304.229 69.4352 303.661 65.0834 302.524 61.5404C301.388 58.0103 299.437 55.1733 296.661 53.0424C293.884 50.9114 290.126 49.3967 285.36 48.4981C280.594 47.5995 274.666 47.1502 267.576 47.1502H173.605V138.254H267.576V138.241Z" fill="#12B46E"/>
<path d="M0.0258789 178.626V164.249H2.54433V176.123H8.56278V178.626H0.0258789Z" fill="white"/>
<path d="M14.1421 178.626V164.249H16.6605V178.626H14.1421Z" fill="white"/>
<path d="M22.4597 178.626V164.249H27.7291C28.4911 164.249 29.1885 164.403 29.7955 164.711C30.4154 165.019 30.9062 165.469 31.2678 166.046C31.6294 166.624 31.8102 167.304 31.8102 168.1C31.8102 168.447 31.7586 168.806 31.6553 169.153C31.5519 169.499 31.397 169.833 31.1774 170.116C30.9578 170.398 30.6866 170.616 30.3508 170.745C30.8029 170.847 31.1645 171.053 31.4486 171.335C31.7328 171.617 31.9523 171.964 32.1073 172.349C32.2623 172.734 32.3785 173.132 32.4302 173.53C32.4948 173.928 32.5206 174.3 32.5206 174.647C32.5206 175.404 32.3269 176.085 31.9523 176.675C31.5778 177.266 31.0612 177.741 30.4283 178.087C29.7955 178.434 29.0852 178.614 28.3102 178.614H22.4468L22.4597 178.626ZM24.9781 169.82H27.432C27.9357 169.82 28.3748 169.666 28.7364 169.345C29.0981 169.024 29.2789 168.614 29.2789 168.087C29.2789 167.535 29.0981 167.112 28.7364 166.829C28.3748 166.547 27.9357 166.406 27.432 166.406H24.9781V169.82ZM24.9781 176.483H28.0519C28.4652 176.483 28.8398 176.38 29.1626 176.187C29.4984 175.995 29.7567 175.712 29.9634 175.366C30.1571 175.019 30.2604 174.621 30.2604 174.172C30.2604 173.787 30.1571 173.427 29.9634 173.081C29.7697 172.734 29.4984 172.465 29.1626 172.246C28.8269 172.028 28.4652 171.926 28.0519 171.926H24.9781V176.47V176.483Z" fill="white"/>
<path d="M45.9648 164.249H48.9353L43.9629 172.144V178.626H41.4445V172.144L36.4722 164.249H39.4426L42.6973 169.41L45.9519 164.249H45.9648Z" fill="white"/>
<path d="M56.0131 164.249H58.919L64.1754 178.626H61.502L60.5721 176.085H54.3728L53.443 178.626H50.7695L56.0131 164.249ZM55.2898 173.582H59.6422L57.4596 167.651L55.2898 173.582Z" fill="white"/>
<path d="M77.1938 178.626V164.249H81.9854C82.9798 164.249 83.9226 164.442 84.7879 164.814C85.6533 165.186 86.4282 165.7 87.0868 166.367C87.7455 167.035 88.275 167.792 88.6496 168.652C89.0241 169.512 89.2178 170.449 89.2178 171.438C89.2178 172.426 89.0241 173.363 88.6496 174.223C88.275 175.083 87.7584 175.854 87.0868 176.508C86.4152 177.163 85.6533 177.689 84.7879 178.062C83.9226 178.434 82.9798 178.626 81.9854 178.626H77.1938ZM79.7123 176.123H81.9854C82.6311 176.123 83.2252 176.008 83.7935 175.764C84.3617 175.52 84.8654 175.186 85.2916 174.763C85.7307 174.339 86.0665 173.838 86.3119 173.273C86.5573 172.709 86.6865 172.105 86.6865 171.451C86.6865 170.796 86.5573 170.193 86.3119 169.628C86.0665 169.063 85.7178 168.575 85.2916 168.139C84.8525 167.702 84.3617 167.368 83.7935 167.125C83.2252 166.881 82.6182 166.765 81.9724 166.765H79.6994V176.136L79.7123 176.123Z" fill="white"/>
<path d="M94.2031 178.626V164.249H96.7216V178.626H94.2031Z" fill="white"/>
<path d="M109.198 178.896C108.19 178.896 107.26 178.703 106.395 178.306C105.53 177.92 104.781 177.381 104.135 176.688C103.489 175.995 102.998 175.199 102.637 174.3C102.275 173.402 102.094 172.439 102.094 171.412C102.094 170.334 102.288 169.332 102.675 168.434C103.063 167.535 103.592 166.739 104.277 166.085C104.948 165.417 105.723 164.904 106.576 164.544C107.428 164.185 108.332 164.005 109.262 164.005C110.308 164.005 111.316 164.249 112.297 164.724C113.279 165.212 114.144 165.956 114.893 166.958L112.646 168.164C112.181 167.599 111.651 167.189 111.057 166.906C110.463 166.624 109.856 166.496 109.236 166.496C108.616 166.496 108.048 166.624 107.493 166.868C106.937 167.112 106.447 167.458 106.02 167.908C105.594 168.357 105.246 168.883 105 169.487C104.755 170.09 104.626 170.757 104.626 171.476C104.626 172.157 104.742 172.798 104.987 173.389C105.233 173.992 105.555 174.519 105.982 174.955C106.408 175.404 106.899 175.751 107.454 176.008C108.009 176.264 108.616 176.393 109.249 176.393C109.675 176.393 110.089 176.329 110.502 176.187C110.915 176.059 111.303 175.867 111.664 175.61C112.026 175.353 112.349 175.045 112.633 174.686C112.917 174.326 113.162 173.915 113.356 173.453H110.722V171.271H116.327C116.353 172.323 116.185 173.299 115.836 174.223C115.474 175.135 114.971 175.956 114.312 176.662C113.653 177.368 112.891 177.92 112.026 178.318C111.161 178.716 110.218 178.909 109.21 178.909L109.198 178.896Z" fill="white"/>
<path d="M121.505 178.626V164.249H124.024V178.626H121.505Z" fill="white"/>
<path d="M140.762 164.249V166.752H136.345V178.626H133.827V166.752H129.41V164.249H140.775H140.762Z" fill="white"/>
<path d="M148.692 164.249H151.598L156.854 178.626H154.181L153.251 176.085H147.052L146.122 178.626H143.448L148.692 164.249ZM147.969 173.582H152.321L150.138 167.651L147.969 173.582Z" fill="white"/>
<path d="M161.594 178.626V164.249H164.112V176.123H170.131V178.626H161.581H161.594Z" fill="white"/>
<path d="M188.574 178.896C187.773 178.896 187.011 178.768 186.275 178.524C185.539 178.28 184.893 177.92 184.351 177.445C183.795 176.97 183.408 176.418 183.163 175.751L185.526 174.891C185.616 175.16 185.823 175.417 186.12 175.635C186.417 175.854 186.779 176.046 187.205 176.175C187.631 176.316 188.096 176.38 188.574 176.38C189.052 176.38 189.543 176.303 189.982 176.149C190.421 175.995 190.77 175.777 191.041 175.507C191.312 175.237 191.441 174.904 191.441 174.531C191.441 174.159 191.299 173.838 191.015 173.607C190.731 173.363 190.369 173.171 189.93 173.03C189.491 172.888 189.039 172.773 188.561 172.696C187.541 172.542 186.611 172.298 185.797 171.964C184.984 171.63 184.338 171.181 183.873 170.603C183.395 170.026 183.163 169.268 183.163 168.344C183.163 167.471 183.408 166.714 183.912 166.059C184.415 165.404 185.074 164.904 185.901 164.544C186.714 164.185 187.605 164.005 188.561 164.005C189.349 164.005 190.124 164.134 190.86 164.377C191.596 164.621 192.242 164.981 192.797 165.456C193.353 165.931 193.753 166.496 193.985 167.163L191.609 168.01C191.519 167.741 191.312 167.484 191.015 167.266C190.718 167.035 190.356 166.855 189.93 166.727C189.504 166.598 189.039 166.521 188.561 166.521C188.07 166.521 187.605 166.585 187.166 166.752C186.727 166.906 186.378 167.125 186.094 167.407C185.823 167.677 185.681 167.997 185.681 168.357C185.681 168.819 185.81 169.166 186.069 169.397C186.327 169.628 186.675 169.795 187.102 169.91C187.541 170.013 188.019 170.116 188.548 170.205C189.517 170.359 190.408 170.603 191.222 170.963C192.035 171.322 192.694 171.797 193.198 172.388C193.688 172.978 193.947 173.71 193.947 174.557C193.947 175.404 193.701 176.187 193.198 176.842C192.707 177.497 192.048 178.01 191.222 178.37C190.408 178.729 189.504 178.909 188.548 178.909L188.574 178.896Z" fill="white"/>
<path d="M205.751 178.896C204.769 178.896 203.852 178.703 202.987 178.318C202.122 177.933 201.373 177.394 200.714 176.714C200.055 176.033 199.551 175.237 199.177 174.339C198.802 173.44 198.622 172.478 198.622 171.451C198.622 170.424 198.802 169.461 199.177 168.562C199.551 167.664 200.068 166.868 200.714 166.187C201.373 165.507 202.122 164.968 202.987 164.583C203.852 164.198 204.769 164.005 205.751 164.005C206.732 164.005 207.662 164.198 208.515 164.583C209.38 164.968 210.129 165.507 210.788 166.187C211.446 166.868 211.95 167.664 212.325 168.562C212.699 169.461 212.88 170.424 212.88 171.451C212.88 172.478 212.699 173.44 212.325 174.339C211.95 175.237 211.446 176.033 210.788 176.714C210.129 177.394 209.38 177.933 208.515 178.318C207.649 178.703 206.732 178.896 205.751 178.896ZM205.751 176.393C206.384 176.393 206.978 176.264 207.533 176.008C208.088 175.751 208.579 175.392 209.005 174.929C209.432 174.467 209.754 173.954 210 173.35C210.245 172.747 210.361 172.118 210.361 171.438C210.361 170.757 210.245 170.116 210 169.525C209.754 168.922 209.432 168.395 209.005 167.946C208.579 167.497 208.088 167.137 207.533 166.881C206.978 166.624 206.384 166.496 205.751 166.496C205.118 166.496 204.524 166.624 203.968 166.881C203.413 167.137 202.922 167.497 202.496 167.959C202.07 168.421 201.747 168.935 201.502 169.538C201.269 170.128 201.14 170.77 201.14 171.451C201.14 172.131 201.256 172.773 201.502 173.376C201.747 173.967 202.07 174.493 202.496 174.955C202.922 175.417 203.413 175.764 203.968 176.021C204.524 176.277 205.118 176.406 205.751 176.406V176.393Z" fill="white"/>
<path d="M217.749 178.626V164.249H220.268V176.123H226.286V178.626H217.736H217.749Z" fill="white"/>
<path d="M236.786 178.896C235.624 178.896 234.616 178.614 233.738 178.049C232.873 177.484 232.188 176.727 231.711 175.789C231.233 174.84 230.987 173.787 230.987 172.632V164.249H233.506V172.632C233.506 173.312 233.635 173.941 233.893 174.519C234.152 175.096 234.526 175.546 235.004 175.879C235.495 176.213 236.076 176.393 236.773 176.393C237.471 176.393 238.065 176.226 238.556 175.879C239.033 175.546 239.408 175.083 239.653 174.519C239.912 173.941 240.028 173.325 240.028 172.632V164.249H242.546V172.632C242.546 173.504 242.404 174.313 242.133 175.071C241.862 175.828 241.461 176.496 240.958 177.073C240.441 177.651 239.834 178.1 239.137 178.421C238.426 178.742 237.639 178.909 236.773 178.909L236.786 178.896Z" fill="white"/>
<path d="M258.987 164.249V166.752H254.57V178.626H252.052V166.752H247.635V164.249H259H258.987Z" fill="white"/>
<path d="M264.36 178.626V164.249H266.878V178.626H264.36Z" fill="white"/>
<path d="M279.38 178.896C278.399 178.896 277.482 178.703 276.616 178.318C275.751 177.933 275.002 177.394 274.343 176.714C273.685 176.033 273.181 175.237 272.806 174.339C272.432 173.44 272.251 172.478 272.251 171.451C272.251 170.424 272.432 169.461 272.806 168.562C273.181 167.664 273.685 166.868 274.343 166.187C275.002 165.507 275.751 164.968 276.616 164.583C277.482 164.198 278.399 164.005 279.38 164.005C280.362 164.005 281.292 164.198 282.144 164.583C283.009 164.968 283.758 165.507 284.417 166.187C285.076 166.868 285.579 167.664 285.954 168.562C286.328 169.461 286.509 170.424 286.509 171.451C286.509 172.478 286.328 173.44 285.954 174.339C285.579 175.237 285.076 176.033 284.417 176.714C283.758 177.394 283.009 177.933 282.144 178.318C281.279 178.703 280.362 178.896 279.38 178.896ZM279.38 176.393C280.013 176.393 280.607 176.264 281.162 176.008C281.718 175.751 282.209 175.392 282.635 174.929C283.061 174.48 283.384 173.954 283.629 173.35C283.862 172.76 283.991 172.118 283.991 171.438C283.991 170.757 283.875 170.116 283.629 169.525C283.384 168.935 283.061 168.395 282.635 167.946C282.209 167.497 281.718 167.137 281.162 166.881C280.607 166.624 280.013 166.496 279.38 166.496C278.747 166.496 278.153 166.624 277.598 166.881C277.042 167.137 276.552 167.497 276.126 167.959C275.699 168.421 275.376 168.935 275.131 169.538C274.899 170.128 274.769 170.77 274.769 171.451C274.769 172.131 274.886 172.773 275.131 173.376C275.376 173.967 275.699 174.493 276.126 174.955C276.552 175.404 277.042 175.764 277.598 176.021C278.153 176.277 278.747 176.406 279.38 176.406V176.393Z" fill="white"/>
<path d="M291.391 178.626V164.249H294.116L300.225 174.095V164.249H302.744V178.626H300.031L293.91 168.78V178.626H291.391Z" fill="white"/>
<path d="M313.424 178.896C312.623 178.896 311.861 178.768 311.125 178.524C310.389 178.28 309.743 177.92 309.201 177.445C308.658 176.97 308.258 176.418 308.013 175.751L310.376 174.891C310.479 175.16 310.673 175.417 310.97 175.635C311.267 175.854 311.629 176.046 312.055 176.175C312.481 176.316 312.946 176.38 313.424 176.38C313.902 176.38 314.393 176.303 314.832 176.149C315.271 175.995 315.62 175.777 315.891 175.507C316.162 175.237 316.291 174.904 316.291 174.531C316.291 174.159 316.149 173.838 315.865 173.607C315.581 173.376 315.219 173.171 314.78 173.03C314.341 172.888 313.889 172.773 313.411 172.696C312.391 172.542 311.461 172.298 310.647 171.964C309.834 171.63 309.188 171.181 308.723 170.603C308.258 170.026 308.013 169.268 308.013 168.344C308.013 167.471 308.258 166.714 308.762 166.059C309.265 165.404 309.924 164.904 310.751 164.544C311.564 164.185 312.455 164.005 313.411 164.005C314.199 164.005 314.974 164.134 315.71 164.377C316.446 164.621 317.092 164.981 317.647 165.456C318.203 165.931 318.603 166.496 318.836 167.163L316.459 168.01C316.369 167.741 316.162 167.484 315.865 167.266C315.568 167.035 315.206 166.855 314.78 166.727C314.354 166.598 313.902 166.521 313.411 166.521C312.92 166.521 312.455 166.585 312.016 166.752C311.577 166.919 311.216 167.125 310.944 167.407C310.673 167.677 310.531 167.997 310.531 168.357C310.531 168.819 310.66 169.166 310.919 169.397C311.177 169.628 311.526 169.795 311.952 169.91C312.391 170.013 312.869 170.116 313.398 170.205C314.367 170.359 315.258 170.603 316.072 170.963C316.885 171.322 317.544 171.797 318.048 172.388C318.551 172.978 318.797 173.71 318.797 174.557C318.797 175.404 318.551 176.187 318.048 176.842C317.557 177.497 316.898 178.01 316.072 178.37C315.258 178.729 314.354 178.909 313.398 178.909L313.424 178.896Z" fill="white"/>
</g>
<defs>
<clipPath id="clip0_134_321">
<rect width="546" height="180" fill="white"/>
</clipPath>
</defs>
</svg>
