<svg width="455" height="151" viewBox="0 0 455 151" fill="none" xmlns="http://www.w3.org/2000/svg">
<g clip-path="url(#clip0_80_263)">
<path d="M403.921 44.0759H352.669C349.182 44.0759 346.631 44.7927 345.017 46.2368C343.403 47.681 342.595 50.4409 342.595 54.5274V57.405C342.595 60.6677 343.284 62.9784 344.673 64.3583C346.061 65.7383 348.655 66.4229 352.475 66.4229H385.409C392.189 66.4229 396.99 67.6639 399.788 70.1457C402.597 72.6275 404.007 76.6925 404.007 82.3622V86.8016C404.007 89.7006 403.662 92.1718 402.984 94.2364C402.306 96.301 401.241 97.9805 399.788 99.307C398.335 100.623 396.408 101.575 394.019 102.153C391.63 102.73 388.756 103.019 385.398 103.019H335.309V96.2796H385.398C389.467 96.2796 392.372 95.6057 394.116 94.2578C395.86 92.9099 396.731 90.4388 396.731 86.8444V82.4157C396.731 78.9497 395.86 76.5214 394.116 75.1414C392.372 73.7614 389.467 73.0768 385.398 73.0768H352.077C348.784 73.0768 346.05 72.7559 343.887 72.114C341.724 71.4722 340.012 70.5094 338.753 69.2257C337.494 67.942 336.622 66.3267 336.138 64.3583C335.654 62.4007 335.406 60.1114 335.406 57.4799V54.5915C335.406 48.3656 336.676 43.9369 339.237 41.3053C341.788 38.6737 346.072 37.3579 352.077 37.3579H403.91V44.0973L403.921 44.0759Z" fill="white"/>
<path d="M326.613 18.9049C300.567 44.7821 299.566 85.7427 324.353 110.39C349.15 135.037 390.36 134.031 416.394 108.154C426.167 98.4406 432.409 86.6092 435.089 74.3071C435.347 93.8407 427.996 113.449 413.004 128.351C383.536 157.64 335.75 157.64 306.282 128.351C276.814 99.0611 276.814 51.5643 306.282 22.2639C321.285 7.36232 341.013 0.0559493 360.666 0.312689C348.289 2.97636 336.385 9.1809 326.613 18.8942" fill="white"/>
<path d="M443.99 61.2775L448.187 55.4581L455 57.6297L450.792 51.8958L455 46.162L448.22 48.3335L443.99 42.6211V49.7028L437.371 51.8958L443.99 54.1102V61.2775Z" fill="#12B46E"/>
<path d="M428.922 40.6848L425.596 36.0849L420.204 37.7965L423.53 33.2608L420.204 28.7144L425.575 30.426L428.922 25.9116V31.5171L434.163 33.2608L428.922 35.0152V40.6848Z" fill="#EE3930"/>
<path d="M445.045 23.6012L441.536 20.9376L437.93 23.4194L439.373 19.3008L435.875 16.68L440.244 16.7548L441.697 12.6577L442.967 16.8083L447.251 16.926L443.764 19.3971L445.045 23.6012Z" fill="white"/>
<path d="M44.3204 125.334C35.6888 125.334 28.5424 124.746 22.8705 123.58C17.1986 122.413 12.6676 120.541 9.27737 117.963C5.88715 115.396 3.49785 112.026 2.09871 107.865C0.69957 103.704 0 98.5795 0 92.5033V29.6343H14.0022V92.5033C14.0022 96.7075 14.4757 100.27 15.4228 103.169C16.3699 106.068 18.0166 108.432 20.3844 110.25C22.7414 112.08 25.9702 113.406 30.0492 114.251C34.1282 115.096 39.2943 115.514 45.5581 115.514H115.946V125.334H44.3204Z" fill="#EE3930"/>
<path d="M130.669 125.334V29.7734H223.034C231.665 29.7734 238.865 30.3618 244.666 31.5278C250.457 32.6938 255.063 34.5659 258.496 37.1333C261.919 39.7007 264.351 43.0918 265.761 47.2959C267.182 51.5 267.892 56.592 267.892 62.5719V92.5569C267.892 98.6331 267.182 103.746 265.761 107.897C264.341 112.058 261.919 115.417 258.496 117.985C255.063 120.552 250.457 122.424 244.666 123.59C238.876 124.756 231.665 125.345 223.034 125.345H130.669V125.334ZM222.98 115.514C228.544 115.514 233.28 115.161 237.186 114.465C241.093 113.759 244.257 112.518 246.69 110.743C249.122 108.967 250.866 106.624 251.931 103.725C252.997 100.826 253.524 97.1354 253.524 92.6425V62.4756C253.524 58.1752 253.051 54.5488 252.103 51.5963C251.156 48.6545 249.531 46.2903 247.217 44.5146C244.903 42.7388 241.771 41.4765 237.8 40.7277C233.829 39.9788 228.888 39.6044 222.98 39.6044H144.671V115.524H222.98V115.514Z" fill="#12B46E"/>
<path d="M0.0214844 149.168V137.187H2.12019V147.082H7.13557V149.168H0.0214844Z" fill="white"/>
<path d="M11.7849 149.168V137.187H13.8836V149.168H11.7849Z" fill="white"/>
<path d="M18.7161 149.168V137.187H23.1072C23.7422 137.187 24.3234 137.315 24.8292 137.572C25.3459 137.828 25.7548 138.203 26.0562 138.684C26.3575 139.166 26.5082 139.733 26.5082 140.396C26.5082 140.685 26.4652 140.984 26.3791 141.273C26.293 141.562 26.1638 141.84 25.9808 142.075C25.7979 142.311 25.5719 142.492 25.292 142.599C25.6687 142.685 25.9701 142.856 26.2069 143.092C26.4436 143.327 26.6266 143.616 26.7558 143.937C26.8849 144.258 26.9818 144.589 27.0248 144.921C27.0786 145.252 27.1002 145.563 27.1002 145.851C27.1002 146.483 26.9387 147.05 26.6266 147.542C26.3145 148.034 25.884 148.43 25.3566 148.718C24.8292 149.007 24.2373 149.157 23.5915 149.157H18.7053L18.7161 149.168ZM20.8148 141.829H22.8597C23.2794 141.829 23.6454 141.701 23.9467 141.433C24.2481 141.166 24.3987 140.824 24.3987 140.385C24.3987 139.925 24.2481 139.572 23.9467 139.337C23.6454 139.101 23.2794 138.984 22.8597 138.984H20.8148V141.829ZM20.8148 147.381H23.3763C23.7207 147.381 24.0328 147.296 24.3019 147.135C24.5817 146.975 24.797 146.739 24.9692 146.451C25.1306 146.162 25.2167 145.83 25.2167 145.456C25.2167 145.135 25.1306 144.835 24.9692 144.546C24.8077 144.258 24.5817 144.033 24.3019 143.851C24.0221 143.669 23.7207 143.584 23.3763 143.584H20.8148V147.371V147.381Z" fill="white"/>
<path d="M38.3041 137.187H40.7795L36.6359 143.765V149.168H34.5372V143.765L30.3936 137.187H32.869L35.5811 141.487L38.2933 137.187H38.3041Z" fill="white"/>
<path d="M46.6775 137.187H49.0991L53.4794 149.168H51.2516L50.4767 147.05H45.3106L44.5357 149.168H42.3079L46.6775 137.187ZM46.0748 144.964H49.7018L47.8829 140.021L46.0748 144.964Z" fill="white"/>
<path d="M64.3281 149.168V137.187H68.3211C69.1498 137.187 69.9354 137.347 70.6565 137.657C71.3776 137.967 72.0234 138.395 72.5723 138.952C73.1212 139.508 73.5624 140.139 73.8746 140.856C74.1867 141.572 74.3481 142.353 74.3481 143.177C74.3481 144.001 74.1867 144.782 73.8746 145.498C73.5624 146.215 73.1319 146.857 72.5723 147.403C72.0126 147.948 71.3776 148.387 70.6565 148.697C69.9354 149.007 69.1498 149.168 68.3211 149.168H64.3281ZM66.4268 147.082H68.3211C68.8592 147.082 69.3543 146.985 69.8278 146.782C70.3014 146.579 70.7211 146.301 71.0763 145.948C71.4422 145.595 71.722 145.178 71.9265 144.707C72.131 144.236 72.2386 143.733 72.2386 143.188C72.2386 142.642 72.131 142.139 71.9265 141.669C71.722 141.198 71.4314 140.792 71.0763 140.428C70.7104 140.064 70.3014 139.786 69.8278 139.583C69.3543 139.38 68.8484 139.283 68.3103 139.283H66.4161V147.092L66.4268 147.082Z" fill="white"/>
<path d="M78.5024 149.168V137.187H80.6011V149.168H78.5024Z" fill="white"/>
<path d="M90.9978 149.392C90.1583 149.392 89.3834 149.232 88.6623 148.9C87.9412 148.579 87.317 148.13 86.7789 147.553C86.2407 146.975 85.8317 146.312 85.5304 145.563C85.229 144.814 85.0784 144.012 85.0784 143.156C85.0784 142.257 85.2398 141.423 85.5627 140.674C85.8856 139.925 86.3268 139.262 86.8972 138.716C87.4569 138.16 88.1027 137.732 88.813 137.433C89.5233 137.133 90.2767 136.983 91.0516 136.983C91.9234 136.983 92.7629 137.187 93.5808 137.582C94.3988 137.989 95.1199 138.609 95.7441 139.444L93.8714 140.449C93.484 139.979 93.0427 139.636 92.5476 139.401C92.0525 139.166 91.5467 139.059 91.0301 139.059C90.5135 139.059 90.0399 139.166 89.5771 139.369C89.1143 139.572 88.7054 139.861 88.3502 140.235C87.995 140.61 87.7044 141.048 87.5 141.551C87.2955 142.054 87.1878 142.61 87.1878 143.209C87.1878 143.776 87.2847 144.311 87.4892 144.803C87.6937 145.306 87.9627 145.745 88.3179 146.108C88.6731 146.483 89.0821 146.772 89.5448 146.986C90.0076 147.199 90.5135 147.306 91.0408 147.306C91.396 147.306 91.7404 147.253 92.0848 147.135C92.4292 147.028 92.7521 146.868 93.0535 146.654C93.3548 146.44 93.6239 146.183 93.8607 145.884C94.0974 145.584 94.3019 145.242 94.4634 144.857H92.2678V143.038H96.9388C96.9603 143.915 96.8204 144.728 96.5298 145.499C96.2284 146.258 95.8087 146.943 95.2598 147.531C94.7109 148.119 94.0759 148.579 93.3548 148.911C92.6337 149.243 91.848 149.403 91.0086 149.403L90.9978 149.392Z" fill="white"/>
<path d="M101.255 149.168V137.187H103.353V149.168H101.255Z" fill="white"/>
<path d="M117.302 137.187V139.273H113.621V149.168H111.522V139.273H107.841V137.187H117.312H117.302Z" fill="white"/>
<path d="M123.91 137.187H126.331L130.712 149.168H128.484L127.709 147.05H122.543L121.768 149.168H119.54L123.91 137.187ZM123.307 144.964H126.934L125.115 140.021L123.307 144.964Z" fill="white"/>
<path d="M134.662 149.168V137.187H136.76V147.082H141.776V149.168H134.651H134.662Z" fill="white"/>
<path d="M157.145 149.392C156.477 149.392 155.842 149.286 155.229 149.082C154.616 148.879 154.077 148.579 153.625 148.184C153.163 147.788 152.84 147.328 152.635 146.772L154.605 146.055C154.68 146.28 154.852 146.493 155.1 146.675C155.347 146.857 155.649 147.018 156.004 147.125C156.359 147.242 156.747 147.296 157.145 147.296C157.543 147.296 157.952 147.232 158.318 147.103C158.684 146.975 158.974 146.793 159.2 146.568C159.426 146.344 159.534 146.066 159.534 145.755C159.534 145.445 159.416 145.178 159.179 144.985C158.942 144.782 158.641 144.621 158.275 144.504C157.909 144.386 157.532 144.29 157.134 144.226C156.284 144.097 155.509 143.894 154.831 143.616C154.153 143.338 153.615 142.963 153.227 142.482C152.829 142.001 152.635 141.369 152.635 140.599C152.635 139.872 152.84 139.241 153.259 138.695C153.679 138.149 154.228 137.732 154.917 137.433C155.595 137.133 156.338 136.983 157.134 136.983C157.791 136.983 158.436 137.09 159.05 137.294C159.663 137.497 160.201 137.796 160.664 138.192C161.127 138.588 161.461 139.059 161.654 139.615L159.674 140.321C159.599 140.096 159.426 139.882 159.179 139.701C158.931 139.508 158.63 139.358 158.275 139.251C157.92 139.144 157.532 139.08 157.134 139.08C156.725 139.08 156.338 139.134 155.972 139.273C155.606 139.401 155.315 139.583 155.078 139.818C154.852 140.043 154.734 140.31 154.734 140.61C154.734 140.995 154.842 141.284 155.057 141.476C155.272 141.669 155.563 141.808 155.918 141.904C156.284 141.99 156.682 142.075 157.123 142.15C157.93 142.279 158.673 142.482 159.351 142.781C160.029 143.081 160.578 143.477 160.998 143.969C161.407 144.461 161.622 145.071 161.622 145.777C161.622 146.483 161.418 147.135 160.998 147.681C160.589 148.226 160.04 148.654 159.351 148.954C158.673 149.253 157.92 149.403 157.123 149.403L157.145 149.392Z" fill="white"/>
<path d="M171.459 149.392C170.641 149.392 169.877 149.232 169.156 148.911C168.435 148.59 167.811 148.141 167.262 147.574C166.713 147.007 166.293 146.344 165.981 145.595C165.669 144.846 165.518 144.044 165.518 143.188C165.518 142.332 165.669 141.53 165.981 140.781C166.293 140.032 166.723 139.369 167.262 138.802C167.811 138.235 168.435 137.786 169.156 137.465C169.877 137.144 170.641 136.983 171.459 136.983C172.277 136.983 173.052 137.144 173.762 137.465C174.483 137.786 175.108 138.235 175.656 138.802C176.205 139.369 176.625 140.032 176.937 140.781C177.249 141.53 177.4 142.332 177.4 143.188C177.4 144.044 177.249 144.846 176.937 145.595C176.625 146.344 176.205 147.007 175.656 147.574C175.108 148.141 174.483 148.59 173.762 148.911C173.041 149.232 172.277 149.392 171.459 149.392ZM171.459 147.306C171.986 147.306 172.481 147.199 172.944 146.986C173.407 146.772 173.816 146.472 174.171 146.087C174.526 145.702 174.795 145.274 175 144.771C175.204 144.268 175.301 143.744 175.301 143.177C175.301 142.61 175.204 142.075 175 141.583C174.795 141.081 174.526 140.642 174.171 140.268C173.816 139.893 173.407 139.594 172.944 139.38C172.481 139.166 171.986 139.059 171.459 139.059C170.932 139.059 170.437 139.166 169.974 139.38C169.511 139.594 169.102 139.893 168.747 140.278C168.392 140.663 168.123 141.091 167.918 141.594C167.724 142.086 167.617 142.621 167.617 143.188C167.617 143.755 167.714 144.29 167.918 144.793C168.123 145.285 168.392 145.723 168.747 146.108C169.102 146.493 169.511 146.782 169.974 146.996C170.437 147.21 170.932 147.317 171.459 147.317V147.306Z" fill="white"/>
<path d="M181.458 149.168V137.187H183.556V147.082H188.572V149.168H181.447H181.458Z" fill="white"/>
<path d="M197.322 149.392C196.353 149.392 195.514 149.157 194.782 148.686C194.061 148.216 193.49 147.584 193.092 146.804C192.694 146.012 192.489 145.135 192.489 144.172V137.187H194.588V144.172C194.588 144.739 194.696 145.263 194.911 145.745C195.126 146.226 195.438 146.6 195.836 146.878C196.245 147.157 196.73 147.306 197.311 147.306C197.892 147.306 198.387 147.167 198.796 146.878C199.194 146.6 199.506 146.215 199.711 145.745C199.926 145.263 200.023 144.75 200.023 144.172V137.187H202.122V144.172C202.122 144.899 202.003 145.573 201.777 146.205C201.551 146.836 201.218 147.392 200.798 147.873C200.367 148.355 199.862 148.729 199.28 148.997C198.689 149.264 198.032 149.403 197.311 149.403L197.322 149.392Z" fill="white"/>
<path d="M215.823 137.187V139.273H212.142V149.168H210.043V139.273H206.362V137.187H215.833H215.823Z" fill="white"/>
<path d="M220.3 149.168V137.187H222.399V149.168H220.3Z" fill="white"/>
<path d="M232.817 149.392C231.999 149.392 231.235 149.232 230.513 148.911C229.792 148.59 229.168 148.141 228.619 147.574C228.07 147.007 227.651 146.344 227.339 145.595C227.026 144.846 226.876 144.044 226.876 143.188C226.876 142.332 227.026 141.53 227.339 140.781C227.651 140.032 228.07 139.369 228.619 138.802C229.168 138.235 229.792 137.786 230.513 137.465C231.235 137.144 231.999 136.983 232.817 136.983C233.635 136.983 234.41 137.144 235.12 137.465C235.841 137.786 236.465 138.235 237.014 138.802C237.563 139.369 237.983 140.032 238.295 140.781C238.607 141.53 238.758 142.332 238.758 143.188C238.758 144.044 238.607 144.846 238.295 145.595C237.983 146.344 237.563 147.007 237.014 147.574C236.465 148.141 235.841 148.59 235.12 148.911C234.399 149.232 233.635 149.392 232.817 149.392ZM232.817 147.306C233.344 147.306 233.839 147.199 234.302 146.986C234.765 146.772 235.174 146.472 235.529 146.087C235.884 145.713 236.153 145.274 236.358 144.771C236.551 144.279 236.659 143.744 236.659 143.177C236.659 142.61 236.562 142.075 236.358 141.583C236.153 141.091 235.884 140.642 235.529 140.268C235.174 139.893 234.765 139.594 234.302 139.38C233.839 139.166 233.344 139.059 232.817 139.059C232.289 139.059 231.794 139.166 231.331 139.38C230.869 139.594 230.46 139.893 230.105 140.278C229.749 140.663 229.48 141.091 229.276 141.594C229.082 142.086 228.974 142.621 228.974 143.188C228.974 143.755 229.071 144.29 229.276 144.793C229.48 145.285 229.749 145.723 230.105 146.108C230.46 146.483 230.869 146.782 231.331 146.996C231.794 147.21 232.289 147.317 232.817 147.317V147.306Z" fill="white"/>
<path d="M242.826 149.168V137.187H245.097L250.188 145.391V137.187H252.286V149.168H250.026L244.925 140.963V149.168H242.826Z" fill="white"/>
<path d="M261.187 149.392C260.519 149.392 259.884 149.286 259.271 149.082C258.658 148.879 258.119 148.579 257.667 148.184C257.215 147.788 256.882 147.328 256.677 146.772L258.647 146.055C258.733 146.28 258.894 146.493 259.142 146.675C259.389 146.857 259.691 147.018 260.046 147.125C260.401 147.242 260.789 147.296 261.187 147.296C261.585 147.296 261.994 147.232 262.36 147.103C262.726 146.975 263.016 146.793 263.242 146.568C263.468 146.344 263.576 146.066 263.576 145.755C263.576 145.445 263.458 145.178 263.221 144.985C262.984 144.793 262.683 144.621 262.317 144.504C261.951 144.386 261.574 144.29 261.176 144.226C260.326 144.097 259.551 143.894 258.873 143.616C258.195 143.338 257.657 142.963 257.269 142.482C256.882 142.001 256.677 141.369 256.677 140.599C256.677 139.872 256.882 139.241 257.301 138.695C257.721 138.149 258.27 137.732 258.959 137.433C259.637 137.133 260.38 136.983 261.176 136.983C261.833 136.983 262.478 137.09 263.092 137.294C263.705 137.497 264.243 137.796 264.706 138.192C265.169 138.588 265.503 139.059 265.696 139.615L263.716 140.321C263.641 140.096 263.468 139.882 263.221 139.701C262.973 139.508 262.672 139.358 262.317 139.251C261.962 139.144 261.585 139.08 261.176 139.08C260.767 139.08 260.38 139.134 260.014 139.273C259.648 139.412 259.346 139.583 259.12 139.818C258.894 140.043 258.776 140.31 258.776 140.61C258.776 140.995 258.884 141.284 259.099 141.476C259.314 141.669 259.605 141.808 259.96 141.904C260.326 141.99 260.724 142.075 261.165 142.15C261.972 142.279 262.715 142.482 263.393 142.781C264.071 143.081 264.62 143.477 265.04 143.969C265.46 144.461 265.664 145.071 265.664 145.777C265.664 146.483 265.46 147.135 265.04 147.681C264.631 148.226 264.082 148.654 263.393 148.954C262.715 149.253 261.962 149.403 261.165 149.403L261.187 149.392Z" fill="white"/>
</g>
<defs>
<clipPath id="clip0_80_263">
<rect width="455" height="150" fill="white" transform="translate(0 0.3125)"/>
</clipPath>
</defs>
</svg>
