<svg width="127" height="42" viewBox="0 0 127 42" fill="none" xmlns="http://www.w3.org/2000/svg">
<path d="M112.743 12.2538H98.4374C97.464 12.2538 96.7521 12.4544 96.3015 12.8588C95.8509 13.2632 95.6256 14.036 95.6256 15.1802V15.9859C95.6256 16.8995 95.8178 17.5464 96.2053 17.9328C96.5929 18.3192 97.3168 18.5109 98.3833 18.5109H107.576C109.468 18.5109 110.808 18.8584 111.589 19.5533C112.373 20.2482 112.767 21.3864 112.767 22.9739V24.217C112.767 25.0287 112.671 25.7206 112.481 26.2987C112.292 26.8768 111.995 27.347 111.589 27.7185C111.184 28.0869 110.646 28.3535 109.979 28.5152C109.312 28.6769 108.51 28.7578 107.573 28.7578H93.5918V26.8708H107.573C108.708 26.8708 109.519 26.6821 110.006 26.3047C110.493 25.9273 110.736 25.2354 110.736 24.2289V22.9889C110.736 22.0184 110.493 21.3385 110.006 20.9521C109.519 20.5657 108.708 20.374 107.573 20.374H98.2721C97.3529 20.374 96.5899 20.2841 95.986 20.1044C95.3822 19.9247 94.9046 19.6551 94.5531 19.2957C94.2016 18.9363 93.9583 18.484 93.8231 17.9328C93.6879 17.3847 93.6188 16.7437 93.6188 16.0069V15.1981C93.6188 13.4549 93.9733 12.2148 94.6883 11.478C95.4003 10.7411 96.5959 10.3727 98.2721 10.3727H112.74V12.2597L112.743 12.2538Z" fill="white"/>
<path d="M91.1643 5.20582C83.8945 12.4514 83.6151 23.9204 90.5335 30.8216C97.4549 37.7227 108.957 37.4412 116.224 30.1956C118.952 27.4758 120.694 24.163 121.442 20.7184C121.514 26.1878 119.463 31.6782 115.278 35.8507C107.053 44.0518 93.7148 44.0518 85.4897 35.8507C77.2645 27.6496 77.2645 14.3504 85.4897 6.14634C89.6773 1.9739 95.1838 -0.0718879 100.669 -8.76957e-07C97.2145 0.745827 93.892 2.4831 91.1643 5.20282" fill="white"/>
<path d="M123.927 17.0702L125.098 15.4407L127 16.0488L125.825 14.4433L127 12.8378L125.107 13.4459L123.927 11.8464V13.8293L122.079 14.4433L123.927 15.0633V17.0702Z" fill="#12B46E"/>
<path d="M119.721 11.3042L118.793 10.0162L117.288 10.4955L118.216 9.22549L117.288 7.95249L118.787 8.43174L119.721 7.16772V8.73726L121.184 9.22549L119.721 9.71672V11.3042Z" fill="#EE3930"/>
<path d="M124.221 6.52076L123.242 5.77493L122.236 6.46984L122.638 5.31665L121.662 4.5828L122.882 4.60377L123.287 3.45657L123.642 4.61875L124.837 4.6517L123.864 5.34361L124.221 6.52076Z" fill="white"/>
<path d="M12.3708 35.006C9.96149 35.006 7.96679 34.8412 6.38365 34.5147C4.8005 34.1883 3.53579 33.6641 2.58951 32.9422C1.64323 32.2234 0.976322 31.2798 0.585793 30.1147C0.195264 28.9495 0 27.5147 0 25.8134V8.21008H3.90829V25.8134C3.90829 26.9906 4.04047 27.988 4.30483 28.7997C4.56919 29.6115 5.02881 30.2734 5.68971 30.7826C6.3476 31.2948 7.24882 31.6662 8.38736 31.9029C9.5259 32.1395 10.9679 32.2563 12.7162 32.2563H32.3628V35.006H12.3708Z" fill="#EE3930"/>
<path d="M36.4724 35.006V8.24902H62.2533C64.6626 8.24902 66.6723 8.41376 68.2915 8.74025C69.9077 9.06674 71.1934 9.59091 72.1517 10.3098C73.107 11.0287 73.7859 11.9782 74.1795 13.1553C74.576 14.3325 74.7743 15.7582 74.7743 17.4326V25.8284C74.7743 27.5297 74.576 28.9615 74.1795 30.1236C73.7829 31.2888 73.107 32.2293 72.1517 32.9482C71.1934 33.6671 69.9077 34.1913 68.2915 34.5177C66.6753 34.8442 64.6626 35.009 62.2533 35.009H36.4724V35.006ZM62.2383 32.2563C63.7914 32.2563 65.1132 32.1575 66.2037 31.9628C67.2942 31.7651 68.1774 31.4176 68.8563 30.9204C69.5352 30.4232 70.0218 29.7672 70.3193 28.9555C70.6167 28.1438 70.7639 27.1104 70.7639 25.8524V17.4056C70.7639 16.2015 70.6317 15.1861 70.3673 14.3594C70.103 13.5357 69.6493 12.8738 69.0035 12.3765C68.3576 11.8793 67.4834 11.5259 66.3749 11.3162C65.2664 11.1065 63.8875 11.0017 62.2383 11.0017H40.3807V32.2593H62.2383V32.2563Z" fill="#12B46E"/>
</svg>
