<svg width="64" height="64" viewBox="0 0 64 64" fill="none" xmlns="http://www.w3.org/2000/svg">
<rect width="64" height="64" rx="32" fill="white" fill-opacity="0.08"/>
<path opacity="0.2" d="M32 19C29.3478 19 26.8043 20.0536 24.9289 21.9289C23.0536 23.8043 22 26.3478 22 29C22 38 32 45 32 45C32 45 42 38 42 29C42 26.3478 40.9464 23.8043 39.0711 21.9289C37.1957 20.0536 34.6522 19 32 19ZM32 33C31.2089 33 30.4355 32.7654 29.7777 32.3259C29.1199 31.8864 28.6072 31.2616 28.3045 30.5307C28.0017 29.7998 27.9225 28.9956 28.0769 28.2196C28.2312 27.4437 28.6122 26.731 29.1716 26.1716C29.731 25.6122 30.4437 25.2312 31.2196 25.0769C31.9956 24.9225 32.7998 25.0017 33.5307 25.3045C34.2616 25.6072 34.8864 26.1199 35.3259 26.7777C35.7654 27.4355 36 28.2089 36 29C36 30.0609 35.5786 31.0783 34.8284 31.8284C34.0783 32.5786 33.0609 33 32 33Z" fill="white"/>
<path d="M23 45H41" stroke="white" stroke-width="2" stroke-linecap="round" stroke-linejoin="round"/>
<path d="M32 33C34.2091 33 36 31.2091 36 29C36 26.7909 34.2091 25 32 25C29.7909 25 28 26.7909 28 29C28 31.2091 29.7909 33 32 33Z" stroke="white" stroke-width="2" stroke-linecap="round" stroke-linejoin="round"/>
<path d="M42 29C42 38 32 45 32 45C32 45 22 38 22 29C22 26.3478 23.0536 23.8043 24.9289 21.9289C26.8043 20.0536 29.3478 19 32 19C34.6522 19 37.1957 20.0536 39.0711 21.9289C40.9464 23.8043 42 26.3478 42 29V29Z" stroke="white" stroke-width="2" stroke-linecap="round" stroke-linejoin="round"/>
</svg>
