<svg width="171" height="151" viewBox="0 0 171 151" fill="none" xmlns="http://www.w3.org/2000/svg">
<g opacity="0.2">
<path d="M42.4316 18.5987C16.3861 44.4759 15.3852 85.4366 40.1714 110.084C64.9685 134.731 106.179 133.725 132.213 107.848C141.986 98.1345 148.228 86.3031 150.908 74.001C151.166 93.5346 143.815 113.143 128.823 128.045C99.355 157.334 51.569 157.334 22.101 128.045C-7.367 98.7549 -7.367 51.2581 22.101 21.9578C37.1041 7.05617 56.8319 -0.250203 76.4845 0.00653635C64.1075 2.67021 52.204 8.87474 42.4316 18.5881" fill="white"/>
<path d="M159.808 60.9713L164.006 55.1519L170.819 57.3235L166.61 51.5897L170.819 45.8558L164.038 48.0274L159.808 42.3149V49.3967L153.189 51.5897L159.808 53.804V60.9713Z" fill="white"/>
<path d="M144.741 40.3787L141.416 35.7788L136.023 37.4904L139.349 32.9546L136.023 28.4082L141.394 30.1198L144.741 25.6055V31.2109L149.983 32.9546L144.741 34.709V40.3787Z" fill="white"/>
<path d="M160.863 23.2951L157.355 20.6314L153.749 23.1132L155.191 18.9947L151.693 16.3738L156.063 16.4487L157.516 12.3516L158.786 16.5022L163.069 16.6199L159.582 19.091L160.863 23.2951Z" fill="white"/>
</g>
</svg>
