<svg width="1568" height="1374" viewBox="0 0 1568 1374" fill="none" xmlns="http://www.w3.org/2000/svg">
<path d="M389.278 170.255C150.33 407.138 141.147 782.097 368.543 1007.72C596.037 1233.34 974.108 1224.14 1212.96 987.252C1302.61 898.335 1359.88 790.029 1384.47 677.414C1386.84 856.227 1319.4 1035.73 1181.85 1172.14C911.507 1440.26 473.107 1440.26 202.76 1172.14C-67.5867 904.015 -67.5867 469.223 202.76 201.004C340.402 64.5931 521.39 -2.29039 701.687 0.0598345C588.137 24.4434 478.933 81.2405 389.278 170.157" fill="white" fill-opacity="0.1"/>
<path d="M1466.12 558.14L1504.63 504.868L1567.13 524.747L1528.52 472.259L1567.13 419.771L1504.92 439.65L1466.12 387.357V452.184L1405.4 472.259L1466.12 492.53V558.14Z" fill="white" fill-opacity="0.1"/>
<path d="M1327.89 369.632L1297.38 327.524L1247.91 343.192L1278.42 301.672L1247.91 260.053L1297.18 275.721L1327.89 234.397V285.71L1375.97 301.672L1327.89 317.732V369.632Z" fill="white" fill-opacity="0.1"/>
<path d="M1475.8 213.244L1443.61 188.861L1410.53 211.58L1423.76 173.878L1391.67 149.886L1431.76 150.572L1445.09 113.066L1456.74 151.061L1496.04 152.139L1464.05 174.759L1475.8 213.244Z" fill="white" fill-opacity="0.1"/>
</svg>
