<svg width="125" height="32" viewBox="0 0 125 32" fill="none" xmlns="http://www.w3.org/2000/svg">
<path d="M38.9246 23.6667V9.80005C38.9246 8.69548 39.82 7.80005 40.9246 7.80005H49.6513V10.7921H42.3119V14.2827L49.2674 14.2601V17.1614L44.4706 17.1704C43.6799 17.1719 42.9146 16.8916 42.3119 16.3797V17.1841V23.6667H38.9246Z" fill="white"/>
<path d="M50.7892 23.6667V12.3334H54.1992V23.6667H50.7892Z" fill="white"/>
<path d="M55.6189 23.6667V12.3334H59.0062V13.6707C59.7063 12.7867 60.9483 11.9934 62.5065 11.9934C65.8939 11.9934 67.4973 13.9654 67.4973 17.2974V23.6667H64.0873V16.9121C64.0873 15.6201 63.0033 14.8494 61.5806 14.8494C60.0902 14.8494 59.0514 15.6654 59.0514 17.0254V23.6667H55.6189Z" fill="white"/>
<path d="M75.1566 24.0974C70.753 24.0747 68.6303 21.0374 68.6303 18.2041V17.8414C68.6303 14.9401 70.8434 11.9481 75.134 11.9481C79.4473 11.9481 81.6604 14.9401 81.6604 17.8414C81.6604 18.1814 81.683 18.4081 81.6378 18.7481H72.0854C72.3338 20.3347 73.4178 21.2641 75.1566 21.2867C76.5567 21.2641 78.0928 20.9688 78.6503 19.5187H81.5023C80.9603 21.8987 78.8601 24.0747 75.1566 24.0974ZM78.6955 16.5947C78.0928 15.1281 76.6019 14.7587 75.134 14.7587C73.6887 14.7587 72.6725 15.4161 72.266 16.5947H78.6955Z" fill="white"/>
<path d="M89.1115 24.0747C85.3854 24.0747 82.7884 21.3321 82.7884 18.1134V17.6827C82.7884 14.4641 85.3854 11.7214 89.1115 11.7214C90.4213 11.7214 92.3104 12.5498 93.0635 13.9404L93.5649 14.8493C93.2314 13.0918 93.0635 11.3067 93.0635 9.51779V7.80005H96.4734V23.6667H93.0635V22.0813C92.4498 23.1938 90.2858 24.0747 89.1115 24.0747ZM89.4954 21.2187C91.3698 21.2187 92.7022 20.0401 92.7022 18.2721V17.5241C92.7022 15.7561 91.3698 14.5774 89.4954 14.5774C87.9373 14.5774 86.1984 15.4161 86.1984 17.9321C86.1984 19.9494 87.5533 21.2187 89.4954 21.2187Z" fill="white"/>
<path d="M103.931 28.2001V25.3894H106.438C107.183 25.3894 107.499 25.0721 107.499 24.4374V22.4985C106.807 23.8891 105.106 24.2561 103.931 24.2561C100.205 24.2561 97.6082 21.5134 97.6082 18.2947V17.8641C97.6082 14.6454 100.205 11.9027 103.931 11.9027C105.083 11.9027 106.528 12.3334 107.477 13.7375V12.3334H110.909V24.1654C110.909 25.0947 110.774 25.8654 110.458 26.4547C109.78 27.7241 108.357 28.2001 106.212 28.2001H103.931ZM104.293 21.3774C106.077 21.3774 107.522 20.3121 107.499 18.7027L107.477 17.3881C107.454 15.7787 106.054 14.7361 104.293 14.7361C102.351 14.7361 100.996 16.0054 100.996 18.0227C100.996 20.1081 102.351 21.3774 104.293 21.3774Z" fill="white"/>
<path d="M118.491 24.0974C114.087 24.0747 111.964 21.0374 111.964 18.2041V17.8414C111.964 14.9401 114.177 11.9481 118.468 11.9481C122.781 11.9481 124.994 14.9401 124.994 17.8414C124.994 18.1814 125.017 18.4081 124.972 18.7481H115.419C115.668 20.3347 116.752 21.2641 118.491 21.2867C119.891 21.2641 121.427 20.9688 121.984 19.5187H124.836C124.294 21.8987 122.194 24.0747 118.491 24.0974ZM122.029 16.5947C121.427 15.1281 119.936 14.7587 118.468 14.7587C117.023 14.7587 116.007 15.4161 115.6 16.5947H122.029Z" fill="white"/>
<path d="M50.7892 11.2337V8.73058H54.1992V11.2337H50.7892Z" fill="white"/>
<g clip-path="url(#clip0_88_499)">
<path d="M15.65 27.3291C15.65 29.4894 14.1882 31.3062 12.203 31.8389C12.195 31.8429 12.1852 31.8447 12.1754 31.8469C11.7117 31.9285 11.2364 31.978 10.7549 31.9941H10.7451C10.6304 31.9981 10.5153 31.9999 10.4006 31.9999C7.43106 31.9999 4.75054 30.7495 2.85474 28.7462C2.63466 28.5116 2.42481 28.2694 2.22474 28.0147C2.22296 28.0129 2.22074 28.0107 2.21896 28.0066C2.21718 28.0049 2.21496 28.0008 2.21318 27.9986C2.2114 27.9964 2.2114 27.9968 2.2114 27.9946C1.93619 27.4004 1.78369 26.7367 1.78369 26.0368C1.78369 25.0371 2.09669 24.1129 2.62977 23.3536C2.84585 23.0436 3.09928 22.7613 3.38249 22.515C3.49364 22.4196 3.60835 22.3281 3.72706 22.2429C4.31127 22.5092 4.96128 22.6582 5.64686 22.6582H10.9955C13.5666 22.6582 15.6509 24.749 15.6509 27.3291H15.65Z" fill="white"/>
<path d="M24.1683 15.9998C24.1683 18.7833 22.0275 20.6707 19.3843 20.6707C17.3338 20.6707 15.2833 20.6707 13.2332 20.6707C10.8363 20.6707 8.43904 20.6707 6.04218 20.6707C4.87153 20.6707 3.80359 21.1038 2.98552 21.8193C2.70231 22.066 2.44844 22.3479 2.2328 22.6579C1.69972 23.4171 1.38672 24.3414 1.38672 25.3411C1.38672 26.3407 1.68994 27.2413 2.21102 27.9943C1.98116 27.7021 1.76908 27.3979 1.57301 27.0839C0.75894 25.776 0.224081 24.2714 0.0555756 22.6575C0.0200072 22.2979 0 21.934 0 21.5642C0 21.2622 0.0120043 20.9637 0.0377914 20.6698C0.154722 19.2923 0.537082 17.9924 1.1373 16.8197C1.1373 16.8179 1.1373 16.8157 1.13908 16.8139C1.68194 15.7465 2.40487 14.7865 3.26651 13.9715C5.12851 12.2104 7.63875 11.1292 10.4002 11.1292H19.315C21.2601 11.1292 22.938 12.2778 23.7108 13.9354C24.0038 14.5612 24.1683 15.2611 24.1683 15.9985V15.9998Z" fill="white"/>
<path d="M31.193 2.3352V2.33698C31.0445 5.65622 28.2275 8.25995 24.8854 8.25995H6.48189C3.35365 8.25995 0.7705 10.5916 0.360574 13.6146C0.326784 13.5214 0.292994 13.4277 0.26365 13.3345C0.0911439 12.5614 0 11.7563 0 10.9315C0 10.3908 0.0395698 9.86002 0.114708 9.34123C0.881651 4.0566 5.41617 0 10.8955 0H28.1266C29.5826 0 30.8289 0.985823 31.193 2.3352Z" fill="white"/>
</g>
<defs>
<clipPath id="clip0_88_499">
<rect width="31.3002" height="32" fill="white"/>
</clipPath>
</defs>
</svg>
