<svg width="62" height="50" viewBox="0 0 62 50" fill="none" xmlns="http://www.w3.org/2000/svg">
<path fill-rule="evenodd" clip-rule="evenodd" d="M54.5027 10.772L34.8835 45.5169L27.4224 46.2889L38.1934 17.8747L54.5027 10.772Z" fill="white"/>
<path fill-rule="evenodd" clip-rule="evenodd" d="M11.3903 4.2876L37.8154 17.6497L27.0609 45.9942L6.78271 9.61727L11.3903 4.2876Z" fill="white"/>
<path fill-rule="evenodd" clip-rule="evenodd" d="M11.7598 4.14014H50.8111L54.5029 10.3108L38.2057 17.4037L11.7598 4.14014Z" fill="white"/>
<mask id="mask0_96_6365" style="mask-type:luminance" maskUnits="userSpaceOnUse" x="1" y="22" width="14" height="9">
<path d="M1.36621 22.0261H14.2189V30.2318H1.36621V22.0261Z" fill="white"/>
</mask>
<g mask="url(#mask0_96_6365)">
<path d="M8.37851 30.2097L8.29778 28.3924L8.38626 28.2786C8.41662 28.2415 8.44632 28.2064 8.47603 28.1726L8.55547 28.079L8.58389 28.0868C10.0835 26.3396 12.4369 25.5009 14.1161 25.1068C10.9916 24.3292 7.16564 23.0619 4.30782 22.1152L4.06757 22.0359L5.84362 26.4723L1.3667 28.1836C3.53218 28.8813 5.9928 29.5914 8.37851 30.2097Z" fill="white"/>
</g>
<path d="M15.6551 29.8177L15.5924 25.6277C14.5636 25.7785 11.3151 26.3956 9.41504 28.3404C10.8333 28.7383 15.1397 29.7182 15.6551 29.8177Z" fill="white"/>
<mask id="mask1_96_6365" style="mask-type:luminance" maskUnits="userSpaceOnUse" x="47" y="22" width="14" height="9">
<path d="M47.7817 22.0261H60.6383V30.2318H47.7817V22.0261Z" fill="white"/>
</mask>
<g mask="url(#mask1_96_6365)">
<path d="M53.369 28.0868L53.3974 28.079L53.4775 28.1726C53.5059 28.2064 53.5369 28.2415 53.5666 28.2786L53.6557 28.3924L53.575 30.2097C55.9756 29.5914 58.4511 28.8813 60.6307 28.1836L56.1261 26.4723L57.9124 22.0359L57.6722 22.1152C54.795 23.0619 50.9452 24.3292 47.8013 25.1068C49.4901 25.5009 51.8584 26.3396 53.369 28.0868Z" fill="white"/>
</g>
<path d="M52.5319 28.3404C50.6196 26.3956 47.3504 25.7785 46.3144 25.6277L46.2524 29.8177C46.7698 29.7182 51.1039 28.7383 52.5319 28.3404Z" fill="white"/>
<mask id="mask2_96_6365" style="mask-type:luminance" maskUnits="userSpaceOnUse" x="7" y="28" width="48" height="14">
<path d="M7.93604 28.9001H54.064V41.1267H7.93604V28.9001Z" fill="white"/>
</mask>
<g mask="url(#mask2_96_6365)">
<path d="M52.8226 30.9665C52.82 30.882 52.82 30.7981 52.8193 30.7136L52.8148 30.4041L52.8322 30.3995C52.8271 29.9138 52.8322 29.4743 52.8497 29.0659C51.4314 29.4638 49.9538 29.8325 48.4561 30.1622C48.323 30.1927 48.1893 30.2213 48.0557 30.2506C47.3846 30.3943 46.722 30.5269 46.0852 30.6466L45.6867 30.7201C40.8184 31.6115 35.8604 32.0406 30.9049 32.0211C25.9804 32.0406 21.0534 31.6115 16.2154 30.7201L15.8195 30.6466C15.1866 30.5269 14.5285 30.3943 13.8614 30.2506C13.729 30.2213 13.5959 30.1927 13.4648 30.1622C11.9762 29.8325 10.5075 29.4638 9.09769 29.0659C9.11513 29.4743 9.1203 29.9138 9.11513 30.3995L9.13257 30.4041L9.12869 30.7136C9.12805 30.7981 9.12805 30.882 9.12482 30.9665C9.09769 31.7994 9.02859 32.6434 8.92074 33.4776C8.73409 34.9094 8.43571 36.2982 8.03271 37.6084C16.3213 39.9784 23.5792 41.0838 30.8591 41.0851L30.9049 41.0844L30.9508 41.0851C38.2771 41.0838 45.5815 39.9784 53.9218 37.6084C53.5162 36.2982 53.2165 34.9094 53.0286 33.4776C52.9194 32.6434 52.8497 31.7994 52.8226 30.9665Z" fill="white"/>
</g>
<path d="M14.738 33.0394C14.8775 33.1487 14.9769 33.3015 15.0376 33.4972C15.0996 33.6916 15.1022 33.8997 15.0454 34.1214C14.9711 34.4042 14.8232 34.6195 14.6011 34.7664C14.3789 34.9121 14.1051 34.9628 13.7796 34.9173C13.8913 35.0512 13.9746 35.1585 14.0301 35.2398C14.087 35.3197 14.1438 35.4264 14.2006 35.5597C14.2575 35.6936 14.3221 35.8783 14.3944 36.1137L14.645 36.9251L13.7356 36.6858L13.3662 35.6091C13.2836 35.3685 13.2151 35.1949 13.1621 35.0889C13.1105 34.9836 13.0459 34.9036 12.9684 34.8496C12.8922 34.7944 12.7772 34.7469 12.6222 34.7066L12.4336 34.6572L12.0255 36.2385L11.2686 36.0408L12.2476 32.2566L13.8932 32.6857C14.0702 32.7325 14.2297 32.7833 14.3711 32.8366C14.5119 32.8905 14.6346 32.9582 14.738 33.0394ZM13.8286 34.3373C13.9281 34.3321 14.0153 34.2983 14.0896 34.2358C14.1651 34.1721 14.2187 34.0811 14.2497 33.9627C14.3014 33.7638 14.2523 33.6025 14.1025 33.479C14.0624 33.4478 14.0101 33.4192 13.9449 33.3932C13.879 33.3672 13.7653 33.3333 13.6039 33.2917L12.8392 33.0915L12.5886 34.0564L13.2551 34.2306C13.527 34.3022 13.7182 34.3373 13.8286 34.3373Z" fill="#242121"/>
<path d="M18.4549 34.0876C18.7598 34.4985 18.8379 35.0726 18.69 35.8093C18.566 36.4251 18.3051 36.8744 17.9073 37.1566C17.5921 37.3835 17.1639 37.4414 16.6233 37.3308L15.125 37.0265L15.8948 33.1929L17.3777 33.4946C17.6476 33.5505 17.8659 33.624 18.0313 33.7156C18.1979 33.806 18.3393 33.9302 18.4549 34.0876ZM17.9073 35.6039C17.9809 35.2365 17.9925 34.9523 17.9408 34.7508C17.8905 34.5479 17.7897 34.4016 17.6386 34.3112C17.4888 34.2215 17.2718 34.1474 16.9876 34.0902L16.5329 33.9965L16.0214 36.535L16.6595 36.665C16.8952 36.7138 17.0896 36.7216 17.2433 36.6884C17.3964 36.654 17.5275 36.5532 17.636 36.3867C17.7445 36.219 17.8349 35.9576 17.9073 35.6039Z" fill="#242121"/>
<path d="M21.263 34.1059C21.6557 34.1631 21.9741 34.3088 22.2189 34.5428C22.463 34.7756 22.6038 35.0832 22.64 35.4661L21.8469 35.5416C21.8275 35.3322 21.7545 35.1592 21.6273 35.024C21.5014 34.8874 21.3341 34.8029 21.1261 34.7717C20.8265 34.7288 20.5772 34.8016 20.3795 34.9902C20.1813 35.1794 20.0502 35.4941 19.9869 35.9343C19.9281 36.3368 19.9488 36.6729 20.0489 36.9434C20.1503 37.2139 20.3782 37.3752 20.7335 37.4272C20.9589 37.4623 21.152 37.4181 21.3121 37.2945C21.4723 37.1697 21.6002 36.9844 21.697 36.7379L22.4152 37.0839C22.2512 37.4915 22.0161 37.777 21.71 37.9421C21.4051 38.1066 21.0486 38.1593 20.6405 38.1008C20.2943 38.0488 20.0004 37.9226 19.7595 37.7237C19.518 37.5227 19.3462 37.2633 19.2429 36.946C19.1408 36.6287 19.1189 36.2724 19.1757 35.8771C19.2274 35.5233 19.3359 35.2021 19.5012 34.9121C19.6678 34.6228 19.8997 34.4011 20.1961 34.2463C20.4919 34.0922 20.8478 34.0454 21.263 34.1059Z" fill="#242121"/>
<path d="M27.7374 38.7311L27.1509 38.6895L26.7815 37.4697L25.1618 37.3552L24.6554 38.5152L24.1104 38.4762L25.8696 34.679L26.4224 34.718L27.7374 38.7311ZM25.8438 35.8415L25.3426 36.9547L26.6524 37.0483L26.2649 35.7271C26.2164 35.571 26.1628 35.3643 26.1047 35.1055C26.1047 35.1231 26.0769 35.2134 26.022 35.376C25.9665 35.5392 25.9071 35.6946 25.8438 35.8415Z" fill="#242121"/>
<path d="M29.9673 34.798C30.3613 34.8051 30.6887 34.9124 30.949 35.1205C31.2086 35.3286 31.3869 35.6108 31.4837 35.9658L30.9722 36.0776C30.8928 35.8143 30.7707 35.6108 30.6054 35.4664C30.4414 35.3208 30.2231 35.2453 29.9492 35.2401C29.5443 35.2336 29.2259 35.3624 28.9934 35.6277C28.7609 35.893 28.6401 36.274 28.6317 36.7694C28.6227 37.2864 28.7273 37.6849 28.9443 37.9658C29.1613 38.2467 29.4687 38.3911 29.8666 38.3976C30.1488 38.4015 30.391 38.3208 30.5925 38.1557C30.7953 37.9892 30.9341 37.7448 31.0084 37.4223L31.5199 37.5601C31.4043 37.971 31.2054 38.2896 30.9231 38.5146C30.6422 38.7383 30.2941 38.8462 29.8795 38.8397C29.5934 38.8345 29.3486 38.7916 29.1458 38.7123C28.9443 38.6329 28.7751 38.5172 28.6395 38.3664C28.4464 38.155 28.3069 37.9106 28.221 37.6329C28.1344 37.354 28.0944 37.0633 28.0996 36.7616C28.106 36.3579 28.1887 36.0067 28.3476 35.7083C28.5077 35.4105 28.7273 35.1823 29.0063 35.0243C29.2853 34.8669 29.6056 34.7915 29.9673 34.798Z" fill="#242121"/>
<path d="M35.3983 38.6681L34.8119 38.6915L34.3133 37.5159L32.6935 37.5757L32.3138 38.7799L31.7661 38.8007L33.1172 34.8371L33.67 34.8188L35.3983 38.6681ZM33.2128 35.997L32.833 37.1544L34.1428 37.1076L33.6209 35.8384C33.557 35.6875 33.4821 35.4886 33.3962 35.2402C33.3975 35.2577 33.3794 35.3494 33.3419 35.5159C33.3058 35.6823 33.2625 35.8429 33.2128 35.997Z" fill="#242121"/>
<path d="M37.9556 34.7212C38.2327 34.848 38.4516 35.0541 38.6118 35.3402C38.7732 35.6263 38.8714 35.9689 38.9063 36.3675C38.9353 36.6972 38.9147 37.0099 38.8443 37.3064C38.7732 37.6016 38.6453 37.8415 38.4593 38.0269C38.325 38.1621 38.17 38.2687 37.9943 38.3468C37.8187 38.4248 37.5965 38.4762 37.3278 38.5002L35.8838 38.6303L35.5376 34.7342L36.9429 34.6067C37.1703 34.5879 37.3595 34.5853 37.5113 34.5989C37.6643 34.6132 37.8122 34.6536 37.9556 34.7212ZM38.3767 36.4117C38.3418 36.0164 38.254 35.7166 38.1132 35.5118C37.9717 35.3057 37.8135 35.1737 37.6378 35.1165C37.4622 35.0593 37.2458 35.0424 36.9894 35.0645L36.0956 35.1451L36.3591 38.1283L37.2038 38.0529C37.457 38.0308 37.6663 37.9813 37.8316 37.9046C37.9982 37.8285 38.1403 37.6725 38.2578 37.4365C38.3767 37.1991 38.4161 36.8578 38.3767 36.4117Z" fill="#242121"/>
<path d="M42.1378 34.4261L39.8645 34.7538L40.0324 35.945L42.1611 35.6381L42.2257 36.0906L40.097 36.3975L40.2856 37.7188L42.6442 37.3807L42.7088 37.8332L39.8413 38.2441L39.291 34.3715L42.0733 33.9709L42.1378 34.4261Z" fill="#242121"/>
<path d="M44.9623 36.3423C44.9997 36.4087 45.0798 36.555 45.2025 36.7819C45.218 36.6505 45.2439 36.4431 45.28 36.1603L45.6624 33.2733L46.3366 33.1355L47.1064 36.9692L46.6234 37.068L45.9801 33.8611L45.5177 37.2943L45.0579 37.3853L43.3038 34.3475L43.9599 37.609L43.4769 37.7078L42.707 33.8741L43.4665 33.7207L44.9623 36.3423Z" fill="#242121"/>
<path d="M47.215 32.9072L47.618 33.2896C47.7317 33.3988 47.8673 33.521 48.0262 33.6563C48.3756 33.9684 48.632 34.2148 48.796 34.3949C48.8528 34.1856 48.931 33.9268 49.0311 33.6199L49.4702 32.3117L50.0463 32.1582L49.1215 34.7382L49.54 36.3378L49.0414 36.4704L48.6229 34.8709L46.6079 33.0685L47.215 32.9072Z" fill="#242121"/>
</svg>
