<svg width="96" height="33" viewBox="0 0 96 33" fill="none" xmlns="http://www.w3.org/2000/svg">
<path d="M5.48065 0.847517C3.64221 1.39905 1.83003 2.8698 0.937068 4.57693C0.333008 5.68 0.333008 5.78505 0.333008 16.5793C0.333008 27.2423 0.333008 27.505 0.910805 28.5292C1.90882 30.3939 3.721 31.7859 5.76955 32.2849C7.34536 32.6789 12.099 32.6789 13.885 32.3112C16.9053 31.6546 19.1902 29.3959 19.5054 26.7433C19.5841 25.9817 19.6367 24.0907 19.5841 22.4886L19.5054 19.5996L18.3235 19.0218C17.6669 18.7067 17.0628 18.4441 16.9578 18.4441C16.8265 18.4178 16.7477 20.2825 16.7477 22.5412C16.7477 26.2968 16.6952 26.7696 16.1962 27.61C15.5396 28.6605 15.1456 29.002 13.8587 29.6586C12.5718 30.2889 7.3191 30.3151 5.97966 29.6586C4.85033 29.1333 3.74726 27.9777 3.37957 27.0059C3.19573 26.5332 3.09067 22.7775 3.09067 16.5531C3.09067 5.81131 3.09067 5.75879 4.74527 4.3143C6.05845 3.1587 7.45041 2.84354 10.5758 2.97486C12.887 3.05365 13.3597 3.1587 14.4628 3.78903C16.2224 4.83957 16.7477 5.96889 16.7477 8.83162V11.0903L15.7759 11.0115L14.7779 10.9327L14.6991 8.98919C14.6466 7.8336 14.4628 6.83559 14.2264 6.44164C13.5698 5.46989 11.8102 4.76078 9.97171 4.76078C7.97568 4.76078 6.84635 5.20725 5.90087 6.33658L5.19175 7.17702L5.24428 11.563L5.32307 15.9228L8.34337 17.446C9.99797 18.2865 11.4162 19.0744 11.495 19.2057C11.8102 19.7047 11.7576 24.3533 11.4425 24.9837C10.9435 25.9291 9.86665 26.2443 9.02622 25.6665C8.36963 25.2463 8.34337 25.1412 8.34337 22.4886V19.731L7.0302 19.0744C6.32108 18.7067 5.61197 18.4178 5.45439 18.4178C5.29681 18.4178 5.19175 19.7835 5.19175 22.226V26.0079L6.00592 26.9534C7.00393 28.0828 8.42216 28.503 10.6546 28.3191C12.4405 28.1878 13.885 27.4262 14.3577 26.3756C14.6466 25.7716 14.8042 17.446 14.5416 17.1834C14.4628 17.1046 13.0708 16.343 11.4425 15.5288L8.47469 14.0318L8.3959 11.0377C8.31711 8.25382 8.36963 8.01745 8.8949 7.57097C9.57775 7.01943 10.4182 6.99317 11.1273 7.49218C11.5475 7.80734 11.6263 8.22755 11.6526 10.3549C11.6788 11.7206 11.7839 12.9812 11.8627 13.1388C11.994 13.3227 13.3334 13.4277 15.6971 13.4277H19.374L19.5316 12.7711C19.6104 12.4297 19.6367 10.6175 19.5841 8.77909C19.4791 4.99714 19.269 4.36682 17.5093 2.6597C15.7759 0.978834 14.2264 0.558617 9.97171 0.584881C8.00195 0.584881 5.97966 0.716198 5.48065 0.847517Z" fill="white"/>
<path d="M29.6958 6.70427C28.0412 7.25581 26.8068 8.09624 25.9664 9.33062C23.4976 12.9287 24.5744 17.8137 28.3038 19.836C29.5119 20.4926 29.9847 20.5977 31.8231 20.5977C34.0293 20.5977 35.3424 20.1774 36.5768 19.0218C37.4698 18.2339 38.3365 16.842 38.2052 16.4743C38.1264 16.2642 37.496 15.9753 36.7869 15.844C35.5525 15.5813 35.5263 15.5813 34.7384 16.448C33.3989 17.8925 31.2191 18.1289 29.5119 17.0258C28.7503 16.5006 27.7785 14.5833 27.7785 13.5328C27.8048 12.2984 28.6715 10.6701 29.6695 10.066C30.2998 9.67205 31.0352 9.4882 31.9019 9.4882C33.0575 9.4882 33.3727 9.61952 34.4495 10.565L35.6576 11.6418L36.9708 11.3266C37.7061 11.1428 38.2839 10.9064 38.2839 10.7751C38.2839 9.75084 36.3142 7.64976 34.7909 6.99317C33.3989 6.41537 31.009 6.28406 29.6958 6.70427Z" fill="white"/>
<path d="M62.8399 6.65182C60.1873 7.57104 58.8742 10.0398 59.951 12.1146C60.5025 13.1914 61.4742 13.7955 64.2319 14.7147C67.2785 15.739 67.6987 15.9491 67.6987 16.5532C67.6987 17.3411 66.832 17.8926 65.6239 17.8926C64.2844 17.8926 63.2076 17.3673 62.4985 16.3956L61.9732 15.6865L60.5025 16.1329C59.6883 16.3956 59.0317 16.6582 59.0317 16.737C59.0317 17.1835 59.9247 18.4441 60.6863 19.127C62.1571 20.4139 63.7066 20.8866 65.9653 20.7028C68.329 20.5452 69.7998 19.731 70.5877 18.1552C71.218 16.9208 71.2443 16.0279 70.6927 14.8723C70.1412 13.6904 69.3796 13.2177 66.1491 12.1146C63.0238 11.0641 62.4723 10.5388 63.4965 9.69838C64.3107 9.01553 65.8602 9.22564 67.1209 10.1711C67.9351 10.8014 68.0401 10.8277 69.2745 10.5125C70.8766 10.0923 70.9554 9.67212 69.6159 8.35894C67.9613 6.67808 64.9148 5.91644 62.8399 6.65182Z" fill="white"/>
<path d="M86.451 6.94061C84.7439 7.75477 83.9822 8.93663 83.9822 10.7225C83.9822 12.6398 85.1116 13.6378 88.5521 14.7146C91.4936 15.6338 91.8613 15.8702 91.8613 16.7369C91.8613 18.4965 87.8167 18.2076 86.845 16.3955C86.5561 15.8439 86.3722 15.7651 85.6106 15.9227C83.1943 16.3692 82.9054 17.0783 84.4812 18.6541C86.1884 20.3612 86.95 20.6501 89.6551 20.6501C91.8088 20.6501 92.1239 20.5714 93.1482 19.9148C94.5402 18.9955 95.2755 17.7874 95.2755 16.448C95.2755 14.2681 94.3826 13.5065 90.3905 12.1145C87.3177 11.064 86.7136 10.5912 87.4753 9.82959C88.2369 9.06795 89.9966 9.19927 91.2047 10.1185C92.1764 10.8539 92.2552 10.8801 93.4108 10.565C94.0674 10.3811 94.724 10.1448 94.8553 10.0134C95.3018 9.56696 93.6735 7.88609 92.1502 7.17698C90.0754 6.20523 88.1581 6.12644 86.451 6.94061Z" fill="white"/>
<path d="M55.3026 6.80926L54.042 6.88805V13.7166V20.5188H55.6178H57.1936V13.7166C57.1936 8.49012 57.1148 6.88805 56.8784 6.83552C56.6946 6.783 55.9855 6.75673 55.3026 6.80926Z" fill="white"/>
<path d="M70.5879 6.83552C70.5879 6.96684 71.7172 9.01539 73.0829 11.4054L75.578 15.7126V18.1288V20.5188H77.1538H78.7296V18.1026V15.6863L80.2266 13.06C81.0408 11.5892 82.1701 9.67198 82.7216 8.75276C83.2732 7.8598 83.7196 6.9931 83.7196 6.83552C83.7196 6.67794 83.0368 6.59915 81.96 6.65168L80.1741 6.73047L78.8346 9.17297C78.0992 10.5124 77.3901 11.7205 77.2588 11.8518C77.1275 11.9832 76.3921 10.9589 75.5517 9.40934L74.0809 6.73047L72.3475 6.65168C71.3758 6.59915 70.5879 6.67794 70.5879 6.83552Z" fill="white"/>
<path d="M40.3058 7.04573C40.2533 7.17705 40.2271 10.1974 40.2271 13.8217L40.2533 20.3876L41.7503 20.4664L43.2474 20.5452L43.3261 18.234L43.4049 15.9228H44.5868H45.7686L47.2919 18.2077L48.7889 20.5189H50.4961C51.4416 20.5189 52.2032 20.4664 52.2032 20.3876C52.2032 20.3351 51.5466 19.2845 50.7587 18.0501C49.9708 16.842 49.3142 15.7652 49.3142 15.6602C49.3142 15.5814 49.6819 15.1874 50.1021 14.8197C51.2315 13.8742 51.6779 12.8762 51.6779 11.2479C51.6779 9.61956 51.0213 8.41144 49.6031 7.46595C48.7627 6.88815 48.4475 6.86189 44.5605 6.86189C42.2756 6.86189 40.3584 6.94068 40.3058 7.04573ZM48.1849 10.066C49.0253 10.8539 48.9728 11.9307 48.0798 12.6399C47.4758 13.1126 47.0818 13.1651 45.401 13.1126L43.4049 13.0338L43.3261 11.6156C43.1948 9.5145 43.2211 9.48824 45.5585 9.48824C47.2657 9.48824 47.6596 9.56703 48.1849 10.066Z" fill="white"/>
<path d="M25.0208 24.327C24.6532 24.6684 24.3643 25.1149 24.3643 25.325C24.3643 25.9028 25.2835 26.822 25.8613 26.822C26.4916 26.822 27.4633 26.1392 27.1745 25.8765C27.0694 25.7715 26.833 25.824 26.6754 25.9816C26.2027 26.4543 25.4673 26.3493 25.1522 25.7977C24.6532 24.8523 25.5986 23.828 26.3603 24.4846C26.9381 24.9573 27.3846 24.6422 26.8856 24.1169C26.2552 23.5128 25.7562 23.5653 25.0208 24.327Z" fill="white"/>
<path d="M28.3826 23.9857C28.1987 24.2746 28.1462 25.3514 28.2775 26.4019C28.2775 26.5595 28.4614 26.4282 28.6715 26.1393C29.0392 25.6403 29.0654 25.6403 29.6695 26.2181L30.2736 26.7959V25.4827C30.2736 24.616 30.1422 24.0908 29.8796 23.9332C29.3281 23.5918 28.6715 23.618 28.3826 23.9857ZM29.7483 24.7211C29.7483 24.9312 29.5382 25.1413 29.3018 25.1938C28.9604 25.2464 28.8291 25.115 28.8291 24.7211C28.8291 24.3271 28.9604 24.1958 29.3018 24.2483C29.5382 24.3009 29.7483 24.511 29.7483 24.7211Z" fill="white"/>
<path d="M33.1624 24.0907C32.7684 24.4846 32.7684 24.5634 33.1886 25.0099C33.425 25.2988 33.7927 25.5089 34.0028 25.5089C34.1866 25.5089 34.3442 25.6927 34.3442 25.9029C34.3442 26.3756 33.7927 26.4281 33.3462 25.9816C32.8997 25.5352 32.6108 25.9291 33.031 26.4281C33.7664 27.3211 35.5523 26.5069 34.9483 25.5614C34.817 25.2988 34.423 25.0887 34.1078 25.0362C33.8189 24.9836 33.5563 24.7735 33.5563 24.5372C33.5563 24.2483 33.7139 24.1695 34.2129 24.3008C34.922 24.4846 35.1321 24.0907 34.4493 23.828C33.8189 23.5917 33.6351 23.6179 33.1624 24.0907Z" fill="white"/>
<path d="M37.7584 24.0645C37.312 24.5898 37.6009 25.1938 38.415 25.4039C38.7827 25.4827 39.0716 25.7191 39.0716 25.9292C39.0716 26.3757 38.4938 26.4019 38.0736 25.9817C37.6271 25.5352 37.3382 25.9292 37.7584 26.4282C38.3625 27.1636 39.8595 26.7696 39.8595 25.8767C39.8595 25.6928 39.5181 25.4039 39.0716 25.1938C38.0473 24.7473 37.9948 24.117 39.0191 24.3271C39.7019 24.4847 39.7019 24.4847 39.2292 24.0907C38.5726 23.5655 38.1786 23.5655 37.7584 24.0645Z" fill="white"/>
<path d="M56.1953 24.2746C55.4599 25.0625 55.4599 25.5353 56.2215 26.2444C57.0094 26.9797 57.8499 26.9797 58.3489 26.2444C58.7954 25.6403 58.5065 24.9837 57.8236 24.9837C57.3771 24.9837 57.3246 25.4302 57.7711 25.5615C58.1913 25.7191 57.7711 26.2969 57.2458 26.2969C56.9832 26.2969 56.6417 26.0343 56.4316 25.7454C56.1427 25.2464 56.169 25.115 56.6155 24.6686C57.0357 24.2483 57.2195 24.1958 57.666 24.4322C58.0074 24.616 58.2701 24.616 58.3751 24.4847C58.5327 24.1958 57.7185 23.6705 57.1145 23.6705C56.9306 23.6705 56.5104 23.9332 56.1953 24.2746Z" fill="white"/>
<path d="M59.8724 23.907C59.6361 24.0383 59.5573 24.5635 59.6098 25.404C59.6886 26.6121 59.7411 26.6909 60.4502 26.7697C60.8704 26.8222 61.3169 26.7434 61.4745 26.5858C61.6846 26.3757 61.527 26.2969 60.923 26.2969C60.3452 26.2969 60.0825 26.1656 60.0825 25.903C60.0825 25.6666 60.3189 25.509 60.7391 25.509C61.1068 25.509 61.3957 25.3777 61.3957 25.2464C61.3957 25.0888 61.0805 24.9838 60.7129 24.9838C59.8987 24.9838 59.9775 24.3797 60.8179 24.2484C61.1331 24.1959 61.3957 24.0383 61.3957 23.907C61.3957 23.6181 60.3452 23.5918 59.8724 23.907Z" fill="white"/>
<path d="M66.701 23.907C66.4647 24.0383 66.3859 24.5635 66.4384 25.404C66.5172 26.6121 66.5697 26.6909 67.2788 26.7697C67.6991 26.8222 68.1455 26.7434 68.3031 26.5858C68.5132 26.3757 68.3556 26.2969 67.7516 26.2969C67.1738 26.2969 66.9111 26.1656 66.9111 25.903C66.9111 25.6929 67.1475 25.509 67.4102 25.509C67.6991 25.509 68.0142 25.3777 68.093 25.2464C68.1981 25.0888 67.9617 24.9838 67.5677 24.9838C66.7273 24.9838 66.8061 24.3797 67.6465 24.2484C67.9617 24.1959 68.2243 24.0383 68.2243 23.907C68.2243 23.6181 67.1738 23.5918 66.701 23.907Z" fill="white"/>
<path d="M72.689 23.9332C72.689 24.0383 72.8728 24.1959 73.0829 24.3009C73.3456 24.3797 73.4769 24.7999 73.4769 25.509C73.4769 26.0868 73.6082 26.5596 73.7395 26.5596C73.8971 26.5596 74.0021 26.0868 74.0021 25.509C74.0021 24.7999 74.1335 24.3797 74.3961 24.3009C75.1315 24.012 74.79 23.7494 73.7395 23.7494C73.1617 23.7494 72.689 23.8282 72.689 23.9332Z" fill="white"/>
<path d="M77.6263 23.9594C76.9172 24.3534 77.0747 24.9837 77.9414 25.3251C78.3879 25.4827 78.7293 25.7716 78.7293 25.9555C78.7293 26.3757 78.1515 26.4019 77.7313 25.9817C77.2848 25.5352 76.9959 25.9292 77.4162 26.4282C78.0202 27.1636 79.5172 26.7696 79.5172 25.8767C79.5172 25.6928 79.1758 25.4039 78.7293 25.1938C77.7051 24.7473 77.6525 24.117 78.6768 24.3534C79.3071 24.5372 79.3597 24.511 79.0182 24.117C78.6243 23.618 78.2829 23.5655 77.6263 23.9594Z" fill="white"/>
<path d="M83.4567 24.0645C83.0102 24.5898 83.2991 25.1938 84.1133 25.4039C84.481 25.4827 84.7698 25.7191 84.7698 25.9292C84.7698 26.3757 84.1921 26.4019 83.7718 25.9817C83.3254 25.5352 83.0365 25.9292 83.4567 26.4282C83.9032 26.9797 84.9537 26.9272 85.2689 26.3231C85.479 25.9555 85.4264 25.7454 85.0587 25.4039C84.8224 25.1676 84.4547 24.9837 84.2971 24.9837C84.1133 24.9837 83.9819 24.7999 83.9819 24.5898C83.9819 24.2746 84.1658 24.2221 84.7173 24.3271C85.4002 24.4847 85.4002 24.4847 84.9274 24.0908C84.2708 23.5655 83.8769 23.5655 83.4567 24.0645Z" fill="white"/>
<path d="M86.1883 23.9858C86.1095 24.0908 86.2145 24.1959 86.4246 24.1959C86.8974 24.1959 87.1338 24.7737 87.0024 25.5353C86.9236 25.8505 87.0024 26.2969 87.1338 26.5333C87.3176 26.8485 87.3701 26.6646 87.3964 25.8505C87.3964 25.01 87.5277 24.6423 87.9742 24.3535C88.2893 24.1171 88.4995 23.9332 88.4469 23.907C87.7641 23.7494 86.2933 23.8019 86.1883 23.9858Z" fill="white"/>
<path d="M89.5502 23.907C89.3138 24.0383 89.235 24.5635 89.2875 25.404C89.3663 26.6121 89.4188 26.6909 90.128 26.7697C90.5482 26.8222 90.9947 26.7434 91.1522 26.5858C91.3623 26.3757 91.2048 26.2969 90.6007 26.2969C90.0229 26.2969 89.7603 26.1656 89.7603 25.903C89.7603 25.6929 89.9966 25.509 90.2593 25.509C90.5482 25.509 90.8633 25.3777 90.9421 25.2464C91.0472 25.0888 90.8108 24.9838 90.4169 24.9838C89.4976 24.9838 89.6815 24.3534 90.627 24.2484C91.0209 24.1959 91.2836 24.0383 91.2048 23.907C90.9947 23.6181 90.0229 23.5918 89.5502 23.907Z" fill="white"/>
<path d="M31.4551 25.2201C31.4551 25.9555 31.5864 26.5596 31.7177 26.5596C31.8753 26.5596 31.9803 26.0343 31.9803 25.404C31.9803 24.7474 31.8753 24.1433 31.7177 24.0645C31.5601 23.9595 31.4551 24.406 31.4551 25.2201Z" fill="white"/>
<path d="M36.025 24.2745C35.7887 24.9048 36.025 26.3756 36.3927 26.5069C36.6028 26.5594 36.7079 26.2442 36.7079 25.4038C36.7079 24.222 36.3139 23.5654 36.025 24.2745Z" fill="white"/>
<path d="M42.1181 25.0099C42.013 25.5877 42.013 26.1655 42.0918 26.3231C42.3807 26.7696 42.7484 26.5595 42.7484 25.9029C42.7484 25.22 43.1423 25.0099 43.3525 25.5615C43.4575 25.8241 43.5363 25.8241 43.8252 25.5615C44.3505 25.0887 44.5868 25.1675 44.5868 25.9029C44.5868 26.2706 44.6919 26.5595 44.8495 26.5595C44.9808 26.5595 45.0858 25.9554 45.0858 25.2463C45.0333 23.8018 44.6656 23.5392 43.9565 24.5109L43.5363 25.115L43.1161 24.5109C42.512 23.6967 42.3019 23.7755 42.1181 25.0099Z" fill="white"/>
<path d="M46.3206 25.0624C45.7953 26.4543 45.7691 27.1634 46.2681 26.4806C46.662 25.9553 47.5025 25.9028 47.9489 26.3493C48.5267 26.9271 48.5267 26.4018 48.0015 25.1674C47.6863 24.4846 47.2924 23.933 47.1085 23.933C46.9247 23.933 46.557 24.432 46.3206 25.0624ZM47.3974 25.4038C47.161 25.6401 46.662 25.2462 46.8459 24.931C46.9509 24.7735 47.1085 24.7735 47.2924 24.9573C47.4499 25.1149 47.5025 25.2987 47.3974 25.4038Z" fill="white"/>
<path d="M49.3145 25.2464C49.3145 25.9555 49.4458 26.5596 49.5771 26.5596C49.7347 26.5596 49.8397 26.2707 49.8397 25.903C49.8397 25.5353 49.9185 25.2464 49.9973 25.2464C50.0761 25.2464 50.3913 25.5353 50.6802 25.903C51.4418 26.8747 51.6782 26.7172 51.6782 25.2464C51.6782 24.511 51.5731 23.9332 51.4155 23.9332C51.2842 23.9332 51.1529 24.3272 51.1529 24.7737L51.1266 25.6403L50.4175 24.7737C50.0236 24.3009 49.6296 23.9332 49.5246 23.9332C49.3932 23.9332 49.3145 24.511 49.3145 25.2464Z" fill="white"/>
<path d="M53.2278 24.6422C53.0702 25.0624 52.8338 25.5877 52.6763 25.8503C52.3874 26.4544 52.6237 26.7696 53.044 26.3493C53.4904 25.9029 54.042 25.9554 54.6198 26.4807C55.0662 26.8746 55.0925 26.8746 55.0925 26.4807C55.0925 25.7453 54.1995 23.9331 53.8319 23.9331C53.648 23.9331 53.3854 24.2483 53.2278 24.6422ZM54.147 25.2725C53.9369 25.6402 53.5167 25.5352 53.5167 25.115C53.5167 24.8786 53.6743 24.7998 53.9107 24.8786C54.1208 24.9836 54.2258 25.1412 54.147 25.2725Z" fill="white"/>
<path d="M62.63 24.1171C62.3411 24.3797 62.4199 26.5596 62.7088 26.5596C62.8664 26.5596 62.9714 26.2707 62.9714 25.903C62.9714 25.5353 63.1027 25.2464 63.234 25.2464C63.3916 25.2464 63.4967 25.3514 63.4967 25.509C63.4967 25.9555 64.2321 25.7979 64.521 25.2989C64.7573 24.9312 64.7836 25.01 64.8099 25.6929C64.8099 26.1656 64.9412 26.5596 65.0725 26.5596C65.2301 26.5596 65.3351 25.9555 65.3351 25.2464C65.3351 23.8544 65.0462 23.5918 64.4947 24.4585C64.3109 24.7474 64.022 24.9838 63.8381 24.9838C63.6805 24.9838 63.4442 24.7474 63.3654 24.4585C63.2078 23.9332 62.9452 23.8019 62.63 24.1171Z" fill="white"/>
<path d="M69.2744 25.2464C69.2744 25.9555 69.4057 26.5596 69.537 26.5596C69.6946 26.5596 69.7997 26.1656 69.7997 25.6929L69.8259 24.8524L70.5613 25.7717C70.9815 26.2707 71.4018 26.6121 71.5068 26.5333C71.7694 26.2444 71.7957 24.2221 71.5068 24.1433C71.3755 24.0908 71.2179 24.3272 71.1654 24.6423C71.0603 25.404 70.9028 25.404 70.2724 24.5898C69.5108 23.6181 69.2744 23.7756 69.2744 25.2464Z" fill="white"/>
<path d="M80.3842 24.5372C80.5943 24.8786 80.8307 25.4301 80.8832 25.7715C80.9883 26.5594 81.6186 26.7958 81.6186 26.0342C81.6186 25.7453 81.8025 25.1937 82.0388 24.8261C82.5378 24.0907 82.2752 23.5654 81.7762 24.2745C81.356 24.8261 80.9358 24.8523 80.7257 24.3271C80.6469 24.1169 80.4368 23.9331 80.2792 23.9331C80.0953 23.9331 80.1216 24.1432 80.3842 24.5372Z" fill="white"/>
<path d="M92.3077 24.117C92.0188 24.3796 92.0976 26.507 92.3865 26.6908C92.5441 26.7958 92.6491 26.507 92.6491 26.0605C92.6491 25.1938 92.8593 25.0625 93.4108 25.5615C93.6997 25.8241 93.7785 25.8241 93.8835 25.5615C94.0936 25.0099 94.4876 25.22 94.4876 25.9029C94.4876 26.2706 94.6189 26.5595 94.7502 26.5595C94.9078 26.5595 95.0129 25.9554 95.0129 25.2463C95.0129 23.8018 94.7502 23.618 94.0936 24.5109L93.6734 25.115L93.2532 24.5109C92.833 23.9069 92.5966 23.8018 92.3077 24.117Z" fill="white"/>
</svg>
