<svg width="16" height="16" viewBox="0 0 16 16" fill="none" xmlns="http://www.w3.org/2000/svg">
<rect width="16" height="16" rx="2" fill="black"/>
<path d="M4.98396 4.23982C3.15234 5.96483 3.08195 8.69532 4.82502 10.3383C6.56885 11.9813 9.46691 11.9143 11.2978 10.1893C11.985 9.54178 12.424 8.75308 12.6125 7.93301C12.6306 9.23514 12.1137 10.5423 11.0594 11.5356C8.98705 13.4881 5.62655 13.4881 3.55423 11.5356C1.48192 9.58314 1.48192 6.41694 3.55423 4.46373C4.60931 3.47037 5.99665 2.98332 7.3787 3.00044C6.5083 3.178 5.6712 3.5916 4.98396 4.23911" fill="white"/>
<path d="M13.2387 7.0644L13.5338 6.67647L14.0129 6.82123L13.717 6.43901L14.0129 6.05678L13.5361 6.20154L13.2387 5.82074V6.29282L12.7732 6.43901L13.2387 6.58662V7.0644Z" fill="#12B46E"/>
<path d="M12.1787 5.69171L11.9449 5.38508L11.5657 5.49917L11.7995 5.19681L11.5657 4.89374L11.9434 5.00784L12.1787 4.70691V5.08058L12.5473 5.19681L12.1787 5.31376V5.69171Z" fill="#EE3930"/>
<path d="M13.3126 4.55287L13.0658 4.37531L12.8123 4.54075L12.9137 4.2662L12.6677 4.09149L12.975 4.09648L13.0772 3.82336L13.1665 4.10005L13.4677 4.10789L13.2225 4.27262L13.3126 4.55287Z" fill="white"/>
</svg>
