<svg width="82" height="82" viewBox="0 0 82 82" fill="none" xmlns="http://www.w3.org/2000/svg">
<rect width="82" height="82" rx="8" fill="#EBFFF6" fill-opacity="0.1"/>
<path d="M41 54.825C43.8292 53.95 46.1917 52.2221 48.0875 49.6415C49.9833 47.0608 51.0917 44.1803 51.4125 41H41V27.252L31.207 30.8867C30.9818 30.9766 30.808 31.1113 30.6855 31.291C30.5618 31.4706 30.5 31.6725 30.5 31.8965V40.1792C30.5 40.4056 30.5292 40.6791 30.5875 41H41V54.825ZM41 56.4735C40.8413 56.4735 40.6739 56.4589 40.4978 56.4297C40.3216 56.4006 40.1582 56.3568 40.0077 56.2985C36.5626 54.986 33.825 52.76 31.795 49.6205C29.765 46.481 28.75 43.0825 28.75 39.425V31.9297C28.75 31.3347 28.9221 30.7963 29.2663 30.3145C29.6104 29.8326 30.0508 29.4826 30.5875 29.2645L40.0113 25.7645C40.3519 25.6408 40.6815 25.579 41 25.579C41.3185 25.579 41.6487 25.6408 41.9905 25.7645L51.4125 29.2645C51.9492 29.4826 52.3896 29.8326 52.7337 30.3145C53.0779 30.7963 53.25 31.3347 53.25 31.9297V39.425C53.25 43.0825 52.235 46.481 50.205 49.6205C48.175 52.76 45.4374 54.986 41.9923 56.2985C41.8406 56.3568 41.6772 56.4006 41.5022 56.4297C41.3272 56.4589 41.1598 56.4735 41 56.4735Z" fill="#12B46E"/>
</svg>
