<svg width="82" height="82" viewBox="0 0 82 82" fill="none" xmlns="http://www.w3.org/2000/svg">
<rect width="82" height="82" rx="8" fill="#EBFFF6" fill-opacity="0.1"/>
<path d="M46.3026 27.6003C46.5484 27.8464 46.6864 28.18 46.6864 28.5278C46.6864 28.8756 46.5484 29.2092 46.3026 29.4553L42.8551 32.9063L46.3026 36.3573C46.5344 36.6061 46.6606 36.9352 46.6546 37.2752C46.6486 37.6152 46.5109 37.9396 46.2704 38.1801C46.0299 38.4206 45.7055 38.5583 45.3655 38.5643C45.0255 38.5703 44.6964 38.4441 44.4476 38.2123L40.0726 33.8338C39.8268 33.5877 39.6887 33.2541 39.6887 32.9063C39.6887 32.5585 39.8268 32.2249 40.0726 31.9788L44.4476 27.6003C44.6937 27.3545 45.0273 27.2164 45.3751 27.2164C45.7229 27.2164 46.0565 27.3545 46.3026 27.6003ZM51.8851 27.6003C51.6393 27.8464 51.5012 28.18 51.5012 28.5278C51.5012 28.8756 51.6393 29.2092 51.8851 29.4553L55.3326 32.9063L51.8851 36.3573C51.6532 36.6061 51.527 36.9352 51.533 37.2752C51.539 37.6152 51.6768 37.9396 51.9172 38.1801C52.1577 38.4206 52.4821 38.5583 52.8222 38.5643C53.1622 38.5703 53.4913 38.4441 53.7401 38.2123L58.1151 33.8338C58.3609 33.5877 58.4989 33.2541 58.4989 32.9063C58.4989 32.5585 58.3609 32.2249 58.1151 31.9788L53.7401 27.6003C53.494 27.3545 53.1604 27.2164 52.8126 27.2164C52.4648 27.2164 52.1312 27.3545 51.8851 27.6003Z" fill="#12B46E"/>
<path d="M58.5 46.852V40.4085C57.7492 41.3453 56.8647 42.1667 55.875 42.8463V46.852C55.875 47.2001 55.7367 47.5339 55.4906 47.7801C55.2444 48.0262 54.9106 48.1645 54.5625 48.1645H27.4375C27.0894 48.1645 26.7556 48.0262 26.5094 47.7801C26.2633 47.5339 26.125 47.2001 26.125 46.852V31.8125C26.125 31.4644 26.2633 31.1306 26.5094 30.8844C26.7556 30.6383 27.0894 30.5 27.4375 30.5H37.304C37.487 29.5947 37.7748 28.7138 38.1615 27.875H27.4375C26.3932 27.875 25.3917 28.2898 24.6533 29.0283C23.9148 29.7667 23.5 30.7682 23.5 31.8125V46.852C23.5 47.8963 23.9148 48.8978 24.6533 49.6362C25.3917 50.3747 26.3932 50.7895 27.4375 50.7895H39.6875V53.6875H35.75C35.4019 53.6875 35.0681 53.8258 34.8219 54.0719C34.5758 54.3181 34.4375 54.6519 34.4375 55C34.4375 55.3481 34.5758 55.6819 34.8219 55.9281C35.0681 56.1742 35.4019 56.3125 35.75 56.3125H46.25C46.5981 56.3125 46.9319 56.1742 47.1781 55.9281C47.4242 55.6819 47.5625 55.3481 47.5625 55C47.5625 54.6519 47.4242 54.3181 47.1781 54.0719C46.9319 53.8258 46.5981 53.6875 46.25 53.6875H42.3125V50.7895H54.5625C55.6068 50.7895 56.6083 50.3747 57.3467 49.6362C58.0852 48.8978 58.5 47.8963 58.5 46.852Z" fill="#12B46E"/>
</svg>
