<svg width="82" height="82" viewBox="0 0 82 82" fill="none" xmlns="http://www.w3.org/2000/svg">
<rect width="82" height="82" rx="8" fill="#EBFFF6" fill-opacity="0.1"/>
<path d="M23.7014 30.5H23.6489C23.2354 30.7481 22.9361 31.1488 22.8154 31.6156C22.7501 31.8501 22.7328 32.0952 22.7643 32.3365C22.7959 32.5778 22.8758 32.8103 22.9992 33.02L23.9704 34.7066C24.209 35.1258 24.6028 35.4343 25.0669 35.5657C25.531 35.6971 26.0281 35.6407 26.451 35.4087C26.4835 35.3974 26.5144 35.382 26.5429 35.3628C26.623 35.3141 26.715 35.2884 26.8087 35.2884C26.9024 35.2884 26.9944 35.3141 27.0745 35.3628C27.2648 35.4809 27.4551 35.5991 27.652 35.6975C27.7411 35.747 27.8142 35.8208 27.863 35.9102C27.9118 35.9997 27.9342 36.1011 27.9276 36.2028C27.9291 36.5801 28.0454 36.9479 28.2611 37.2574C28.4769 37.5669 28.7817 37.8033 29.1351 37.9353V48.2384L27.9604 47.6216C27.4663 47.3638 26.9029 47.2701 26.352 47.3538C25.801 47.4376 25.2909 47.6946 24.8957 48.0875C24.7965 48.1928 24.7044 48.3046 24.6201 48.4222C24.4093 48.7062 24.2581 49.0298 24.1755 49.3738C24.0929 49.7177 24.0806 50.0747 24.1395 50.4235C24.1983 50.7722 24.327 51.1055 24.5179 51.4032C24.7087 51.701 24.9578 51.9571 25.2501 52.1562L33.8929 58.325C35.2738 59.3119 36.9339 59.8315 38.631 59.8081L48.2189 59.6834C49.3879 59.6627 50.5469 59.9026 51.6117 60.3856C52.0622 60.5859 52.5493 60.691 53.0423 60.6941C53.4876 60.6941 53.9286 60.606 54.3397 60.4348C54.7508 60.2636 55.124 60.0127 55.4376 59.6966L58.2464 56.8616C58.5842 56.5217 58.8461 56.114 59.0147 55.6654C59.1833 55.2169 59.2548 54.7376 59.2244 54.2593C59.194 53.7811 59.0624 53.3147 58.8384 52.8911C58.6144 52.4675 58.303 52.0962 57.9248 51.8019L55.9035 50.1875C55.2782 49.6985 54.5922 49.2926 53.8626 48.98V31.5237C53.8591 30.6726 53.519 29.8574 52.9165 29.2561C52.3141 28.6549 51.4982 28.3164 50.647 28.3147H38.4473C38.6423 28.0264 38.753 27.6893 38.7669 27.3415C38.7809 26.9937 38.6974 26.6489 38.526 26.3459L37.5482 24.6725C37.2972 24.2441 36.8866 23.9326 36.4064 23.8063C36.1778 23.7428 35.9389 23.7252 35.7035 23.7545C35.4681 23.7838 35.2409 23.8594 35.0348 23.9769L34.9692 24.0097C34.8871 24.0595 34.7929 24.0859 34.6968 24.0859C34.6008 24.0859 34.5066 24.0595 34.4245 24.0097C34.2342 23.8916 34.0439 23.78 33.847 23.6816C33.7597 23.6306 33.6882 23.5563 33.6407 23.4671C33.5932 23.3779 33.5714 23.2772 33.5779 23.1763C33.5797 22.6848 33.3866 22.2127 33.0409 21.8634C32.6953 21.5141 32.2253 21.316 31.7339 21.3125H29.7651C29.5184 21.3142 29.2744 21.3647 29.0473 21.4611C28.8202 21.5575 28.6144 21.6979 28.4417 21.8742C28.2691 22.0505 28.1331 22.2592 28.0414 22.4883C27.9498 22.7174 27.9044 22.9624 27.9079 23.2091C27.9093 23.3038 27.885 23.3971 27.8376 23.4791C27.7902 23.5611 27.7216 23.6288 27.6389 23.675C27.4398 23.7748 27.2469 23.8866 27.0614 24.0097C26.98 24.0582 26.887 24.0839 26.7923 24.0839C26.6976 24.0839 26.6046 24.0582 26.5232 24.0097L26.451 23.9703C26.0268 23.7451 25.5319 23.6925 25.0697 23.8233C24.6076 23.9541 24.2137 24.2583 23.9704 24.6725L22.9992 26.3525C22.8758 26.5622 22.7959 26.7947 22.7643 27.036C22.7328 27.2773 22.7501 27.5224 22.8154 27.7569C22.8722 27.9876 22.9746 28.2046 23.1166 28.3951C23.2586 28.5856 23.4374 28.7457 23.6423 28.8659L23.7014 28.9053C23.7875 28.9581 23.8582 29.0325 23.9066 29.1212C23.955 29.2098 23.9792 29.3097 23.977 29.4106C23.977 29.5156 23.977 29.6141 23.977 29.7125C23.977 29.8109 23.977 29.9094 23.977 29.9881C23.9791 30.09 23.9548 30.1906 23.9065 30.2803C23.8582 30.37 23.7875 30.4457 23.7014 30.5ZM55.0964 51.2375L57.1373 52.8125C57.3689 52.9934 57.5595 53.2213 57.6966 53.4812C57.8338 53.7411 57.9143 54.0271 57.9329 54.3203C57.9515 54.6136 57.9078 54.9075 57.8046 55.1826C57.7014 55.4577 57.541 55.7079 57.3342 55.9166L54.5254 58.7516C54.224 59.0539 53.8366 59.2559 53.4161 59.3299C52.9956 59.4039 52.5626 59.3463 52.176 59.165C50.9774 58.6257 49.6776 58.3482 48.3632 58.3512H48.2189L38.6048 58.4759C37.1935 58.494 35.8135 58.0593 34.6673 57.2356L25.9917 51.0537C25.7108 50.851 25.5214 50.5455 25.4649 50.2038C25.4083 49.862 25.4892 49.5118 25.6898 49.2294C25.7305 49.1725 25.7767 49.1198 25.8276 49.0719C26.0241 48.877 26.2771 48.7493 26.5505 48.7068C26.824 48.6644 27.1038 48.7095 27.3501 48.8356L33.7814 52.2219C35.311 53.0217 37.0584 53.3049 38.7623 53.0291C39.0565 53.4653 39.4351 53.8381 39.8758 54.1255C40.3166 54.413 40.8104 54.6092 41.3282 54.7025C43.6022 55.243 45.9186 55.5856 48.2517 55.7262C48.3378 55.7301 48.4239 55.717 48.5051 55.6876C48.5862 55.6582 48.6607 55.6131 48.7244 55.5549C48.788 55.4967 48.8396 55.4266 48.8762 55.3484C48.9128 55.2703 48.9336 55.1857 48.9375 55.0995C48.9413 55.0134 48.9282 54.9273 48.8988 54.8461C48.8694 54.765 48.8243 54.6905 48.7661 54.6268C48.7079 54.5632 48.6378 54.5116 48.5596 54.475C48.4815 54.4384 48.3969 54.4176 48.3107 54.4137C46.0694 54.2648 43.8439 53.9333 41.6564 53.4228C40.4226 53.1275 39.7467 52.5172 39.7467 51.7166C39.7438 51.4084 39.8354 51.1068 40.009 50.8522C40.1826 50.5977 40.43 50.4023 40.7179 50.2925C41.4595 50.1153 44.7276 49.8462 49.6757 49.5509C51.6278 49.4334 53.5556 50.0332 55.0964 51.2375ZM29.1351 32.2456C28.7452 31.9978 28.4176 31.6637 28.1775 31.269C27.9374 30.8744 27.7913 30.4298 27.7505 29.9696C27.7097 29.5095 27.7753 29.0461 27.9421 28.6154C28.109 28.1846 28.3727 27.798 28.7129 27.4854C29.0531 27.1729 29.4606 26.9428 29.9039 26.8129C30.3472 26.683 30.8144 26.6568 31.2695 26.7363C31.7245 26.8158 32.1552 26.9989 32.5282 27.2715C32.9011 27.544 33.2064 27.8987 33.4204 28.3081H32.3442C31.4936 28.3099 30.6784 28.6485 30.0769 29.25C29.4755 29.8514 29.1368 30.6666 29.1351 31.5172V32.2456ZM50.647 29.6206C51.1506 29.6206 51.6337 29.8202 51.9904 30.1757C52.3471 30.5312 52.5484 31.0136 52.5501 31.5172V48.5469C51.5897 48.2799 50.5926 48.1691 49.597 48.2188C45.9942 48.4353 41.4726 48.7437 40.4095 48.9997C39.8359 49.1773 39.3347 49.5348 38.9801 50.0194C38.6256 50.504 38.4364 51.0899 38.4407 51.6903V51.7362C37.0686 51.9286 35.6705 51.6925 34.4376 51.0603L30.5001 48.98V31.5237C30.5018 31.0213 30.7022 30.5399 31.0575 30.1846C31.4128 29.8293 31.8942 29.6289 32.3967 29.6272L50.647 29.6206ZM25.2829 29.7125C25.2829 29.6469 25.2829 29.5813 25.2829 29.4894C25.3004 29.1537 25.2274 28.8195 25.0716 28.5216C24.9157 28.2238 24.6827 27.9733 24.397 27.7962L24.3379 27.7503C24.2128 27.6788 24.1211 27.5606 24.083 27.4216C24.0449 27.2826 24.0634 27.1341 24.1345 27.0087L25.1057 25.3288C25.1411 25.2667 25.1884 25.2123 25.245 25.1687C25.3016 25.1251 25.3662 25.0933 25.4353 25.0749C25.5043 25.0566 25.5763 25.0522 25.647 25.062C25.7177 25.0718 25.7858 25.0955 25.8473 25.1319H25.9129C26.202 25.2942 26.5295 25.3757 26.8609 25.3676C27.1924 25.3595 27.5155 25.2622 27.7964 25.0859C27.9412 24.9883 28.0925 24.9006 28.2492 24.8234C28.5554 24.6646 28.8107 24.4229 28.9859 24.1258C29.1612 23.8287 29.2493 23.4882 29.2401 23.1434C29.2469 23.0036 29.3072 22.8717 29.4086 22.7751C29.5101 22.6786 29.6448 22.6248 29.7848 22.625H31.7535C31.8279 22.6267 31.9013 22.6432 31.9692 22.6736C32.0371 22.7041 32.0982 22.7478 32.149 22.8022C32.1997 22.8567 32.2391 22.9207 32.2647 22.9906C32.2904 23.0604 32.3018 23.1347 32.2982 23.2091C32.2949 23.5475 32.3859 23.8802 32.5609 24.17C32.7359 24.4597 32.9881 24.6951 33.2892 24.8497C33.4488 24.9293 33.6043 25.017 33.7551 25.1122C34.0324 25.2914 34.3537 25.3906 34.6838 25.3987C35.0138 25.4068 35.3397 25.3235 35.6254 25.1581H35.691C35.7514 25.1214 35.8185 25.0973 35.8885 25.0871C35.9584 25.077 36.0296 25.081 36.0979 25.0991C36.239 25.1367 36.3593 25.2287 36.4326 25.355L37.4039 27.0284C37.4405 27.0942 37.4637 27.1665 37.472 27.2413C37.4803 27.3161 37.4735 27.3919 37.4521 27.464C37.4307 27.5362 37.3951 27.6033 37.3474 27.6615C37.2996 27.7197 37.2408 27.7677 37.1742 27.8028C36.9446 27.9377 36.7474 28.1214 36.5967 28.3409H34.8445C34.6113 27.6563 34.2098 27.0412 33.6769 26.5521C33.1441 26.063 32.4969 25.7156 31.7948 25.5418C31.0928 25.368 30.3583 25.3733 29.6588 25.5572C28.9593 25.7412 28.3172 26.0979 27.7915 26.5946C27.2657 27.0914 26.8732 27.7122 26.6499 28.4001C26.4266 29.0881 26.3796 29.8211 26.5134 30.5319C26.6471 31.2427 26.9573 31.9085 27.4154 32.4682C27.8734 33.028 28.4648 33.4636 29.1351 33.7353V35.6581C28.9885 35.2057 28.6705 34.8288 28.2492 34.6081C28.091 34.5273 27.9377 34.4374 27.7898 34.3391C27.5122 34.1571 27.1906 34.0536 26.8589 34.0398C26.5273 34.0259 26.1981 34.1021 25.9064 34.2603L25.8276 34.2997C25.703 34.3713 25.5552 34.3909 25.4163 34.354C25.2774 34.3171 25.1587 34.2268 25.086 34.1028L24.1345 32.4163C24.0634 32.2909 24.0449 32.1424 24.083 32.0034C24.1211 31.8644 24.2128 31.7462 24.3379 31.6747L24.3904 31.6353C24.6812 31.4546 24.9181 31.1991 25.0763 30.8955C25.2345 30.5918 25.3081 30.2512 25.2895 29.9094C25.2829 29.8438 25.2829 29.7781 25.2829 29.7125ZM33.7026 32.8034C33.7026 32.6294 33.7717 32.4625 33.8948 32.3394C34.0179 32.2163 34.1848 32.1472 34.3589 32.1472H48.4617C48.6357 32.1472 48.8026 32.2163 48.9257 32.3394C49.0488 32.4625 49.1179 32.6294 49.1179 32.8034C49.1179 32.9775 49.0488 33.1444 48.9257 33.2675C48.8026 33.3905 48.6357 33.4597 48.4617 33.4597H34.3589C34.1848 33.4597 34.0179 33.3905 33.8948 33.2675C33.7717 33.1444 33.7026 32.9775 33.7026 32.8034ZM33.7026 37.3972C33.7026 37.2231 33.7717 37.0562 33.8948 36.9331C34.0179 36.8101 34.1848 36.7409 34.3589 36.7409H48.4617C48.6357 36.7409 48.8026 36.8101 48.9257 36.9331C49.0488 37.0562 49.1179 37.2231 49.1179 37.3972C49.1179 37.5712 49.0488 37.7382 48.9257 37.8612C48.8026 37.9843 48.6357 38.0534 48.4617 38.0534H34.3589C34.2721 38.0534 34.1862 38.0363 34.1062 38.0029C34.0261 37.9695 33.9535 37.9205 33.8925 37.8589C33.8315 37.7973 33.7833 37.7242 33.7507 37.6438C33.7181 37.5634 33.7017 37.4774 33.7026 37.3906V37.3972ZM33.7026 41.9909C33.7026 41.8169 33.7717 41.65 33.8948 41.5269C34.0179 41.4038 34.1848 41.3347 34.3589 41.3347H48.4617C48.6357 41.3347 48.8026 41.4038 48.9257 41.5269C49.0488 41.65 49.1179 41.8169 49.1179 41.9909C49.1179 42.165 49.0488 42.3319 48.9257 42.455C48.8026 42.578 48.6357 42.6472 48.4617 42.6472H34.3589C34.2721 42.6472 34.1862 42.63 34.1062 42.5966C34.0261 42.5632 33.9535 42.5143 33.8925 42.4527C33.8315 42.391 33.7833 42.3179 33.7507 42.2375C33.7181 42.1571 33.7017 42.0711 33.7026 41.9844V41.9909ZM33.7026 46.5847C33.7026 46.4106 33.7717 46.2437 33.8948 46.1206C34.0179 45.9976 34.1848 45.9284 34.3589 45.9284H48.4617C48.6357 45.9284 48.8026 45.9976 48.9257 46.1206C49.0488 46.2437 49.1179 46.4106 49.1179 46.5847C49.1179 46.7587 49.0488 46.9257 48.9257 47.0487C48.8026 47.1718 48.6357 47.2409 48.4617 47.2409H34.3589C34.2721 47.2409 34.1862 47.2238 34.1062 47.1904C34.0261 47.157 33.9535 47.108 33.8925 47.0464C33.8315 46.9848 33.7833 46.9117 33.7507 46.8313C33.7181 46.7509 33.7017 46.6649 33.7026 46.5781V46.5847Z" fill="black"/>
<mask id="path-3-outside-1_135_80" maskUnits="userSpaceOnUse" x="21.749" y="20.3125" width="38" height="41" fill="black">
<rect fill="white" x="21.749" y="20.3125" width="38" height="41"/>
<path d="M23.7014 30.5H23.6489C23.2354 30.7481 22.9361 31.1488 22.8154 31.6156C22.7501 31.8501 22.7328 32.0952 22.7643 32.3365C22.7959 32.5778 22.8758 32.8103 22.9992 33.02L23.9704 34.7066C24.209 35.1258 24.6028 35.4343 25.0669 35.5657C25.531 35.6971 26.0281 35.6407 26.451 35.4087C26.4835 35.3974 26.5144 35.382 26.5429 35.3628C26.623 35.3141 26.715 35.2884 26.8087 35.2884C26.9024 35.2884 26.9944 35.3141 27.0745 35.3628C27.2648 35.4809 27.4551 35.5991 27.652 35.6975C27.7411 35.747 27.8142 35.8208 27.863 35.9102C27.9118 35.9997 27.9342 36.1011 27.9276 36.2028C27.9291 36.5801 28.0454 36.9479 28.2611 37.2574C28.4769 37.5669 28.7817 37.8033 29.1351 37.9353V48.2384L27.9604 47.6216C27.4663 47.3638 26.9029 47.2701 26.352 47.3538C25.801 47.4376 25.2909 47.6946 24.8957 48.0875C24.7965 48.1928 24.7044 48.3046 24.6201 48.4222C24.4093 48.7062 24.2581 49.0298 24.1755 49.3738C24.0929 49.7177 24.0806 50.0747 24.1395 50.4235C24.1983 50.7722 24.327 51.1055 24.5179 51.4032C24.7087 51.701 24.9578 51.9571 25.2501 52.1562L33.8929 58.325C35.2738 59.3119 36.9339 59.8315 38.631 59.8081L48.2189 59.6834C49.3879 59.6627 50.5469 59.9026 51.6117 60.3856C52.0622 60.5859 52.5493 60.691 53.0423 60.6941C53.4876 60.6941 53.9286 60.606 54.3397 60.4348C54.7508 60.2636 55.124 60.0127 55.4376 59.6966L58.2464 56.8616C58.5842 56.5217 58.8461 56.114 59.0147 55.6654C59.1833 55.2169 59.2548 54.7376 59.2244 54.2593C59.194 53.7811 59.0624 53.3147 58.8384 52.8911C58.6144 52.4675 58.303 52.0962 57.9248 51.8019L55.9035 50.1875C55.2782 49.6985 54.5922 49.2926 53.8626 48.98V31.5237C53.8591 30.6726 53.519 29.8574 52.9165 29.2561C52.3141 28.6549 51.4982 28.3164 50.647 28.3147H38.4473C38.6423 28.0264 38.753 27.6893 38.7669 27.3415C38.7809 26.9937 38.6974 26.6489 38.526 26.3459L37.5482 24.6725C37.2972 24.2441 36.8866 23.9326 36.4064 23.8063C36.1778 23.7428 35.9389 23.7252 35.7035 23.7545C35.4681 23.7838 35.2409 23.8594 35.0348 23.9769L34.9692 24.0097C34.8871 24.0595 34.7929 24.0859 34.6968 24.0859C34.6008 24.0859 34.5066 24.0595 34.4245 24.0097C34.2342 23.8916 34.0439 23.78 33.847 23.6816C33.7597 23.6306 33.6882 23.5563 33.6407 23.4671C33.5932 23.3779 33.5714 23.2772 33.5779 23.1763C33.5797 22.6848 33.3866 22.2127 33.0409 21.8634C32.6953 21.5141 32.2253 21.316 31.7339 21.3125H29.7651C29.5184 21.3142 29.2744 21.3647 29.0473 21.4611C28.8202 21.5575 28.6144 21.6979 28.4417 21.8742C28.2691 22.0505 28.1331 22.2592 28.0414 22.4883C27.9498 22.7174 27.9044 22.9624 27.9079 23.2091C27.9093 23.3038 27.885 23.3971 27.8376 23.4791C27.7902 23.5611 27.7216 23.6288 27.6389 23.675C27.4398 23.7748 27.2469 23.8866 27.0614 24.0097C26.98 24.0582 26.887 24.0839 26.7923 24.0839C26.6976 24.0839 26.6046 24.0582 26.5232 24.0097L26.451 23.9703C26.0268 23.7451 25.5319 23.6925 25.0697 23.8233C24.6076 23.9541 24.2137 24.2583 23.9704 24.6725L22.9992 26.3525C22.8758 26.5622 22.7959 26.7947 22.7643 27.036C22.7328 27.2773 22.7501 27.5224 22.8154 27.7569C22.8722 27.9876 22.9746 28.2046 23.1166 28.3951C23.2586 28.5856 23.4374 28.7457 23.6423 28.8659L23.7014 28.9053C23.7875 28.9581 23.8582 29.0325 23.9066 29.1212C23.955 29.2098 23.9792 29.3097 23.977 29.4106C23.977 29.5156 23.977 29.6141 23.977 29.7125C23.977 29.8109 23.977 29.9094 23.977 29.9881C23.9791 30.09 23.9548 30.1906 23.9065 30.2803C23.8582 30.37 23.7875 30.4457 23.7014 30.5ZM55.0964 51.2375L57.1373 52.8125C57.3689 52.9934 57.5595 53.2213 57.6966 53.4812C57.8338 53.7411 57.9143 54.0271 57.9329 54.3203C57.9515 54.6136 57.9078 54.9075 57.8046 55.1826C57.7014 55.4577 57.541 55.7079 57.3342 55.9166L54.5254 58.7516C54.224 59.0539 53.8366 59.2559 53.4161 59.3299C52.9956 59.4039 52.5626 59.3463 52.176 59.165C50.9774 58.6257 49.6776 58.3482 48.3632 58.3512H48.2189L38.6048 58.4759C37.1935 58.494 35.8135 58.0593 34.6673 57.2356L25.9917 51.0537C25.7108 50.851 25.5214 50.5455 25.4649 50.2038C25.4083 49.862 25.4892 49.5118 25.6898 49.2294C25.7305 49.1725 25.7767 49.1198 25.8276 49.0719C26.0241 48.877 26.2771 48.7493 26.5505 48.7068C26.824 48.6644 27.1038 48.7095 27.3501 48.8356L33.7814 52.2219C35.311 53.0217 37.0584 53.3049 38.7623 53.0291C39.0565 53.4653 39.4351 53.8381 39.8758 54.1255C40.3166 54.413 40.8104 54.6092 41.3282 54.7025C43.6022 55.243 45.9186 55.5856 48.2517 55.7262C48.3378 55.7301 48.4239 55.717 48.5051 55.6876C48.5862 55.6582 48.6607 55.6131 48.7244 55.5549C48.788 55.4967 48.8396 55.4266 48.8762 55.3484C48.9128 55.2703 48.9336 55.1857 48.9375 55.0995C48.9413 55.0134 48.9282 54.9273 48.8988 54.8461C48.8694 54.765 48.8243 54.6905 48.7661 54.6268C48.7079 54.5632 48.6378 54.5116 48.5596 54.475C48.4815 54.4384 48.3969 54.4176 48.3107 54.4137C46.0694 54.2648 43.8439 53.9333 41.6564 53.4228C40.4226 53.1275 39.7467 52.5172 39.7467 51.7166C39.7438 51.4084 39.8354 51.1068 40.009 50.8522C40.1826 50.5977 40.43 50.4023 40.7179 50.2925C41.4595 50.1153 44.7276 49.8462 49.6757 49.5509C51.6278 49.4334 53.5556 50.0332 55.0964 51.2375ZM29.1351 32.2456C28.7452 31.9978 28.4176 31.6637 28.1775 31.269C27.9374 30.8744 27.7913 30.4298 27.7505 29.9696C27.7097 29.5095 27.7753 29.0461 27.9421 28.6154C28.109 28.1846 28.3727 27.798 28.7129 27.4854C29.0531 27.1729 29.4606 26.9428 29.9039 26.8129C30.3472 26.683 30.8144 26.6568 31.2695 26.7363C31.7245 26.8158 32.1552 26.9989 32.5282 27.2715C32.9011 27.544 33.2064 27.8987 33.4204 28.3081H32.3442C31.4936 28.3099 30.6784 28.6485 30.0769 29.25C29.4755 29.8514 29.1368 30.6666 29.1351 31.5172V32.2456ZM50.647 29.6206C51.1506 29.6206 51.6337 29.8202 51.9904 30.1757C52.3471 30.5312 52.5484 31.0136 52.5501 31.5172V48.5469C51.5897 48.2799 50.5926 48.1691 49.597 48.2188C45.9942 48.4353 41.4726 48.7437 40.4095 48.9997C39.8359 49.1773 39.3347 49.5348 38.9801 50.0194C38.6256 50.504 38.4364 51.0899 38.4407 51.6903V51.7362C37.0686 51.9286 35.6705 51.6925 34.4376 51.0603L30.5001 48.98V31.5237C30.5018 31.0213 30.7022 30.5399 31.0575 30.1846C31.4128 29.8293 31.8942 29.6289 32.3967 29.6272L50.647 29.6206ZM25.2829 29.7125C25.2829 29.6469 25.2829 29.5813 25.2829 29.4894C25.3004 29.1537 25.2274 28.8195 25.0716 28.5216C24.9157 28.2238 24.6827 27.9733 24.397 27.7962L24.3379 27.7503C24.2128 27.6788 24.1211 27.5606 24.083 27.4216C24.0449 27.2826 24.0634 27.1341 24.1345 27.0087L25.1057 25.3288C25.1411 25.2667 25.1884 25.2123 25.245 25.1687C25.3016 25.1251 25.3662 25.0933 25.4353 25.0749C25.5043 25.0566 25.5763 25.0522 25.647 25.062C25.7177 25.0718 25.7858 25.0955 25.8473 25.1319H25.9129C26.202 25.2942 26.5295 25.3757 26.8609 25.3676C27.1924 25.3595 27.5155 25.2622 27.7964 25.0859C27.9412 24.9883 28.0925 24.9006 28.2492 24.8234C28.5554 24.6646 28.8107 24.4229 28.9859 24.1258C29.1612 23.8287 29.2493 23.4882 29.2401 23.1434C29.2469 23.0036 29.3072 22.8717 29.4086 22.7751C29.5101 22.6786 29.6448 22.6248 29.7848 22.625H31.7535C31.8279 22.6267 31.9013 22.6432 31.9692 22.6736C32.0371 22.7041 32.0982 22.7478 32.149 22.8022C32.1997 22.8567 32.2391 22.9207 32.2647 22.9906C32.2904 23.0604 32.3018 23.1347 32.2982 23.2091C32.2949 23.5475 32.3859 23.8802 32.5609 24.17C32.7359 24.4597 32.9881 24.6951 33.2892 24.8497C33.4488 24.9293 33.6043 25.017 33.7551 25.1122C34.0324 25.2914 34.3537 25.3906 34.6838 25.3987C35.0138 25.4068 35.3397 25.3235 35.6254 25.1581H35.691C35.7514 25.1214 35.8185 25.0973 35.8885 25.0871C35.9584 25.077 36.0296 25.081 36.0979 25.0991C36.239 25.1367 36.3593 25.2287 36.4326 25.355L37.4039 27.0284C37.4405 27.0942 37.4637 27.1665 37.472 27.2413C37.4803 27.3161 37.4735 27.3919 37.4521 27.464C37.4307 27.5362 37.3951 27.6033 37.3474 27.6615C37.2996 27.7197 37.2408 27.7677 37.1742 27.8028C36.9446 27.9377 36.7474 28.1214 36.5967 28.3409H34.8445C34.6113 27.6563 34.2098 27.0412 33.6769 26.5521C33.1441 26.063 32.4969 25.7156 31.7948 25.5418C31.0928 25.368 30.3583 25.3733 29.6588 25.5572C28.9593 25.7412 28.3172 26.0979 27.7915 26.5946C27.2657 27.0914 26.8732 27.7122 26.6499 28.4001C26.4266 29.0881 26.3796 29.8211 26.5134 30.5319C26.6471 31.2427 26.9573 31.9085 27.4154 32.4682C27.8734 33.028 28.4648 33.4636 29.1351 33.7353V35.6581C28.9885 35.2057 28.6705 34.8288 28.2492 34.6081C28.091 34.5273 27.9377 34.4374 27.7898 34.3391C27.5122 34.1571 27.1906 34.0536 26.8589 34.0398C26.5273 34.0259 26.1981 34.1021 25.9064 34.2603L25.8276 34.2997C25.703 34.3713 25.5552 34.3909 25.4163 34.354C25.2774 34.3171 25.1587 34.2268 25.086 34.1028L24.1345 32.4163C24.0634 32.2909 24.0449 32.1424 24.083 32.0034C24.1211 31.8644 24.2128 31.7462 24.3379 31.6747L24.3904 31.6353C24.6812 31.4546 24.9181 31.1991 25.0763 30.8955C25.2345 30.5918 25.3081 30.2512 25.2895 29.9094C25.2829 29.8438 25.2829 29.7781 25.2829 29.7125ZM33.7026 32.8034C33.7026 32.6294 33.7717 32.4625 33.8948 32.3394C34.0179 32.2163 34.1848 32.1472 34.3589 32.1472H48.4617C48.6357 32.1472 48.8026 32.2163 48.9257 32.3394C49.0488 32.4625 49.1179 32.6294 49.1179 32.8034C49.1179 32.9775 49.0488 33.1444 48.9257 33.2675C48.8026 33.3905 48.6357 33.4597 48.4617 33.4597H34.3589C34.1848 33.4597 34.0179 33.3905 33.8948 33.2675C33.7717 33.1444 33.7026 32.9775 33.7026 32.8034ZM33.7026 37.3972C33.7026 37.2231 33.7717 37.0562 33.8948 36.9331C34.0179 36.8101 34.1848 36.7409 34.3589 36.7409H48.4617C48.6357 36.7409 48.8026 36.8101 48.9257 36.9331C49.0488 37.0562 49.1179 37.2231 49.1179 37.3972C49.1179 37.5712 49.0488 37.7382 48.9257 37.8612C48.8026 37.9843 48.6357 38.0534 48.4617 38.0534H34.3589C34.2721 38.0534 34.1862 38.0363 34.1062 38.0029C34.0261 37.9695 33.9535 37.9205 33.8925 37.8589C33.8315 37.7973 33.7833 37.7242 33.7507 37.6438C33.7181 37.5634 33.7017 37.4774 33.7026 37.3906V37.3972ZM33.7026 41.9909C33.7026 41.8169 33.7717 41.65 33.8948 41.5269C34.0179 41.4038 34.1848 41.3347 34.3589 41.3347H48.4617C48.6357 41.3347 48.8026 41.4038 48.9257 41.5269C49.0488 41.65 49.1179 41.8169 49.1179 41.9909C49.1179 42.165 49.0488 42.3319 48.9257 42.455C48.8026 42.578 48.6357 42.6472 48.4617 42.6472H34.3589C34.2721 42.6472 34.1862 42.63 34.1062 42.5966C34.0261 42.5632 33.9535 42.5143 33.8925 42.4527C33.8315 42.391 33.7833 42.3179 33.7507 42.2375C33.7181 42.1571 33.7017 42.0711 33.7026 41.9844V41.9909ZM33.7026 46.5847C33.7026 46.4106 33.7717 46.2437 33.8948 46.1206C34.0179 45.9976 34.1848 45.9284 34.3589 45.9284H48.4617C48.6357 45.9284 48.8026 45.9976 48.9257 46.1206C49.0488 46.2437 49.1179 46.4106 49.1179 46.5847C49.1179 46.7587 49.0488 46.9257 48.9257 47.0487C48.8026 47.1718 48.6357 47.2409 48.4617 47.2409H34.3589C34.2721 47.2409 34.1862 47.2238 34.1062 47.1904C34.0261 47.157 33.9535 47.108 33.8925 47.0464C33.8315 46.9848 33.7833 46.9117 33.7507 46.8313C33.7181 46.7509 33.7017 46.6649 33.7026 46.5781V46.5847Z"/>
</mask>
<path d="M23.7014 30.5H23.6489C23.2354 30.7481 22.9361 31.1488 22.8154 31.6156C22.7501 31.8501 22.7328 32.0952 22.7643 32.3365C22.7959 32.5778 22.8758 32.8103 22.9992 33.02L23.9704 34.7066C24.209 35.1258 24.6028 35.4343 25.0669 35.5657C25.531 35.6971 26.0281 35.6407 26.451 35.4087C26.4835 35.3974 26.5144 35.382 26.5429 35.3628C26.623 35.3141 26.715 35.2884 26.8087 35.2884C26.9024 35.2884 26.9944 35.3141 27.0745 35.3628C27.2648 35.4809 27.4551 35.5991 27.652 35.6975C27.7411 35.747 27.8142 35.8208 27.863 35.9102C27.9118 35.9997 27.9342 36.1011 27.9276 36.2028C27.9291 36.5801 28.0454 36.9479 28.2611 37.2574C28.4769 37.5669 28.7817 37.8033 29.1351 37.9353V48.2384L27.9604 47.6216C27.4663 47.3638 26.9029 47.2701 26.352 47.3538C25.801 47.4376 25.2909 47.6946 24.8957 48.0875C24.7965 48.1928 24.7044 48.3046 24.6201 48.4222C24.4093 48.7062 24.2581 49.0298 24.1755 49.3738C24.0929 49.7177 24.0806 50.0747 24.1395 50.4235C24.1983 50.7722 24.327 51.1055 24.5179 51.4032C24.7087 51.701 24.9578 51.9571 25.2501 52.1562L33.8929 58.325C35.2738 59.3119 36.9339 59.8315 38.631 59.8081L48.2189 59.6834C49.3879 59.6627 50.5469 59.9026 51.6117 60.3856C52.0622 60.5859 52.5493 60.691 53.0423 60.6941C53.4876 60.6941 53.9286 60.606 54.3397 60.4348C54.7508 60.2636 55.124 60.0127 55.4376 59.6966L58.2464 56.8616C58.5842 56.5217 58.8461 56.114 59.0147 55.6654C59.1833 55.2169 59.2548 54.7376 59.2244 54.2593C59.194 53.7811 59.0624 53.3147 58.8384 52.8911C58.6144 52.4675 58.303 52.0962 57.9248 51.8019L55.9035 50.1875C55.2782 49.6985 54.5922 49.2926 53.8626 48.98V31.5237C53.8591 30.6726 53.519 29.8574 52.9165 29.2561C52.3141 28.6549 51.4982 28.3164 50.647 28.3147H38.4473C38.6423 28.0264 38.753 27.6893 38.7669 27.3415C38.7809 26.9937 38.6974 26.6489 38.526 26.3459L37.5482 24.6725C37.2972 24.2441 36.8866 23.9326 36.4064 23.8063C36.1778 23.7428 35.9389 23.7252 35.7035 23.7545C35.4681 23.7838 35.2409 23.8594 35.0348 23.9769L34.9692 24.0097C34.8871 24.0595 34.7929 24.0859 34.6968 24.0859C34.6008 24.0859 34.5066 24.0595 34.4245 24.0097C34.2342 23.8916 34.0439 23.78 33.847 23.6816C33.7597 23.6306 33.6882 23.5563 33.6407 23.4671C33.5932 23.3779 33.5714 23.2772 33.5779 23.1763C33.5797 22.6848 33.3866 22.2127 33.0409 21.8634C32.6953 21.5141 32.2253 21.316 31.7339 21.3125H29.7651C29.5184 21.3142 29.2744 21.3647 29.0473 21.4611C28.8202 21.5575 28.6144 21.6979 28.4417 21.8742C28.2691 22.0505 28.1331 22.2592 28.0414 22.4883C27.9498 22.7174 27.9044 22.9624 27.9079 23.2091C27.9093 23.3038 27.885 23.3971 27.8376 23.4791C27.7902 23.5611 27.7216 23.6288 27.6389 23.675C27.4398 23.7748 27.2469 23.8866 27.0614 24.0097C26.98 24.0582 26.887 24.0839 26.7923 24.0839C26.6976 24.0839 26.6046 24.0582 26.5232 24.0097L26.451 23.9703C26.0268 23.7451 25.5319 23.6925 25.0697 23.8233C24.6076 23.9541 24.2137 24.2583 23.9704 24.6725L22.9992 26.3525C22.8758 26.5622 22.7959 26.7947 22.7643 27.036C22.7328 27.2773 22.7501 27.5224 22.8154 27.7569C22.8722 27.9876 22.9746 28.2046 23.1166 28.3951C23.2586 28.5856 23.4374 28.7457 23.6423 28.8659L23.7014 28.9053C23.7875 28.9581 23.8582 29.0325 23.9066 29.1212C23.955 29.2098 23.9792 29.3097 23.977 29.4106C23.977 29.5156 23.977 29.6141 23.977 29.7125C23.977 29.8109 23.977 29.9094 23.977 29.9881C23.9791 30.09 23.9548 30.1906 23.9065 30.2803C23.8582 30.37 23.7875 30.4457 23.7014 30.5ZM55.0964 51.2375L57.1373 52.8125C57.3689 52.9934 57.5595 53.2213 57.6966 53.4812C57.8338 53.7411 57.9143 54.0271 57.9329 54.3203C57.9515 54.6136 57.9078 54.9075 57.8046 55.1826C57.7014 55.4577 57.541 55.7079 57.3342 55.9166L54.5254 58.7516C54.224 59.0539 53.8366 59.2559 53.4161 59.3299C52.9956 59.4039 52.5626 59.3463 52.176 59.165C50.9774 58.6257 49.6776 58.3482 48.3632 58.3512H48.2189L38.6048 58.4759C37.1935 58.494 35.8135 58.0593 34.6673 57.2356L25.9917 51.0537C25.7108 50.851 25.5214 50.5455 25.4649 50.2038C25.4083 49.862 25.4892 49.5118 25.6898 49.2294C25.7305 49.1725 25.7767 49.1198 25.8276 49.0719C26.0241 48.877 26.2771 48.7493 26.5505 48.7068C26.824 48.6644 27.1038 48.7095 27.3501 48.8356L33.7814 52.2219C35.311 53.0217 37.0584 53.3049 38.7623 53.0291C39.0565 53.4653 39.4351 53.8381 39.8758 54.1255C40.3166 54.413 40.8104 54.6092 41.3282 54.7025C43.6022 55.243 45.9186 55.5856 48.2517 55.7262C48.3378 55.7301 48.4239 55.717 48.5051 55.6876C48.5862 55.6582 48.6607 55.6131 48.7244 55.5549C48.788 55.4967 48.8396 55.4266 48.8762 55.3484C48.9128 55.2703 48.9336 55.1857 48.9375 55.0995C48.9413 55.0134 48.9282 54.9273 48.8988 54.8461C48.8694 54.765 48.8243 54.6905 48.7661 54.6268C48.7079 54.5632 48.6378 54.5116 48.5596 54.475C48.4815 54.4384 48.3969 54.4176 48.3107 54.4137C46.0694 54.2648 43.8439 53.9333 41.6564 53.4228C40.4226 53.1275 39.7467 52.5172 39.7467 51.7166C39.7438 51.4084 39.8354 51.1068 40.009 50.8522C40.1826 50.5977 40.43 50.4023 40.7179 50.2925C41.4595 50.1153 44.7276 49.8462 49.6757 49.5509C51.6278 49.4334 53.5556 50.0332 55.0964 51.2375ZM29.1351 32.2456C28.7452 31.9978 28.4176 31.6637 28.1775 31.269C27.9374 30.8744 27.7913 30.4298 27.7505 29.9696C27.7097 29.5095 27.7753 29.0461 27.9421 28.6154C28.109 28.1846 28.3727 27.798 28.7129 27.4854C29.0531 27.1729 29.4606 26.9428 29.9039 26.8129C30.3472 26.683 30.8144 26.6568 31.2695 26.7363C31.7245 26.8158 32.1552 26.9989 32.5282 27.2715C32.9011 27.544 33.2064 27.8987 33.4204 28.3081H32.3442C31.4936 28.3099 30.6784 28.6485 30.0769 29.25C29.4755 29.8514 29.1368 30.6666 29.1351 31.5172V32.2456ZM50.647 29.6206C51.1506 29.6206 51.6337 29.8202 51.9904 30.1757C52.3471 30.5312 52.5484 31.0136 52.5501 31.5172V48.5469C51.5897 48.2799 50.5926 48.1691 49.597 48.2188C45.9942 48.4353 41.4726 48.7437 40.4095 48.9997C39.8359 49.1773 39.3347 49.5348 38.9801 50.0194C38.6256 50.504 38.4364 51.0899 38.4407 51.6903V51.7362C37.0686 51.9286 35.6705 51.6925 34.4376 51.0603L30.5001 48.98V31.5237C30.5018 31.0213 30.7022 30.5399 31.0575 30.1846C31.4128 29.8293 31.8942 29.6289 32.3967 29.6272L50.647 29.6206ZM25.2829 29.7125C25.2829 29.6469 25.2829 29.5813 25.2829 29.4894C25.3004 29.1537 25.2274 28.8195 25.0716 28.5216C24.9157 28.2238 24.6827 27.9733 24.397 27.7962L24.3379 27.7503C24.2128 27.6788 24.1211 27.5606 24.083 27.4216C24.0449 27.2826 24.0634 27.1341 24.1345 27.0087L25.1057 25.3288C25.1411 25.2667 25.1884 25.2123 25.245 25.1687C25.3016 25.1251 25.3662 25.0933 25.4353 25.0749C25.5043 25.0566 25.5763 25.0522 25.647 25.062C25.7177 25.0718 25.7858 25.0955 25.8473 25.1319H25.9129C26.202 25.2942 26.5295 25.3757 26.8609 25.3676C27.1924 25.3595 27.5155 25.2622 27.7964 25.0859C27.9412 24.9883 28.0925 24.9006 28.2492 24.8234C28.5554 24.6646 28.8107 24.4229 28.9859 24.1258C29.1612 23.8287 29.2493 23.4882 29.2401 23.1434C29.2469 23.0036 29.3072 22.8717 29.4086 22.7751C29.5101 22.6786 29.6448 22.6248 29.7848 22.625H31.7535C31.8279 22.6267 31.9013 22.6432 31.9692 22.6736C32.0371 22.7041 32.0982 22.7478 32.149 22.8022C32.1997 22.8567 32.2391 22.9207 32.2647 22.9906C32.2904 23.0604 32.3018 23.1347 32.2982 23.2091C32.2949 23.5475 32.3859 23.8802 32.5609 24.17C32.7359 24.4597 32.9881 24.6951 33.2892 24.8497C33.4488 24.9293 33.6043 25.017 33.7551 25.1122C34.0324 25.2914 34.3537 25.3906 34.6838 25.3987C35.0138 25.4068 35.3397 25.3235 35.6254 25.1581H35.691C35.7514 25.1214 35.8185 25.0973 35.8885 25.0871C35.9584 25.077 36.0296 25.081 36.0979 25.0991C36.239 25.1367 36.3593 25.2287 36.4326 25.355L37.4039 27.0284C37.4405 27.0942 37.4637 27.1665 37.472 27.2413C37.4803 27.3161 37.4735 27.3919 37.4521 27.464C37.4307 27.5362 37.3951 27.6033 37.3474 27.6615C37.2996 27.7197 37.2408 27.7677 37.1742 27.8028C36.9446 27.9377 36.7474 28.1214 36.5967 28.3409H34.8445C34.6113 27.6563 34.2098 27.0412 33.6769 26.5521C33.1441 26.063 32.4969 25.7156 31.7948 25.5418C31.0928 25.368 30.3583 25.3733 29.6588 25.5572C28.9593 25.7412 28.3172 26.0979 27.7915 26.5946C27.2657 27.0914 26.8732 27.7122 26.6499 28.4001C26.4266 29.0881 26.3796 29.8211 26.5134 30.5319C26.6471 31.2427 26.9573 31.9085 27.4154 32.4682C27.8734 33.028 28.4648 33.4636 29.1351 33.7353V35.6581C28.9885 35.2057 28.6705 34.8288 28.2492 34.6081C28.091 34.5273 27.9377 34.4374 27.7898 34.3391C27.5122 34.1571 27.1906 34.0536 26.8589 34.0398C26.5273 34.0259 26.1981 34.1021 25.9064 34.2603L25.8276 34.2997C25.703 34.3713 25.5552 34.3909 25.4163 34.354C25.2774 34.3171 25.1587 34.2268 25.086 34.1028L24.1345 32.4163C24.0634 32.2909 24.0449 32.1424 24.083 32.0034C24.1211 31.8644 24.2128 31.7462 24.3379 31.6747L24.3904 31.6353C24.6812 31.4546 24.9181 31.1991 25.0763 30.8955C25.2345 30.5918 25.3081 30.2512 25.2895 29.9094C25.2829 29.8438 25.2829 29.7781 25.2829 29.7125ZM33.7026 32.8034C33.7026 32.6294 33.7717 32.4625 33.8948 32.3394C34.0179 32.2163 34.1848 32.1472 34.3589 32.1472H48.4617C48.6357 32.1472 48.8026 32.2163 48.9257 32.3394C49.0488 32.4625 49.1179 32.6294 49.1179 32.8034C49.1179 32.9775 49.0488 33.1444 48.9257 33.2675C48.8026 33.3905 48.6357 33.4597 48.4617 33.4597H34.3589C34.1848 33.4597 34.0179 33.3905 33.8948 33.2675C33.7717 33.1444 33.7026 32.9775 33.7026 32.8034ZM33.7026 37.3972C33.7026 37.2231 33.7717 37.0562 33.8948 36.9331C34.0179 36.8101 34.1848 36.7409 34.3589 36.7409H48.4617C48.6357 36.7409 48.8026 36.8101 48.9257 36.9331C49.0488 37.0562 49.1179 37.2231 49.1179 37.3972C49.1179 37.5712 49.0488 37.7382 48.9257 37.8612C48.8026 37.9843 48.6357 38.0534 48.4617 38.0534H34.3589C34.2721 38.0534 34.1862 38.0363 34.1062 38.0029C34.0261 37.9695 33.9535 37.9205 33.8925 37.8589C33.8315 37.7973 33.7833 37.7242 33.7507 37.6438C33.7181 37.5634 33.7017 37.4774 33.7026 37.3906V37.3972ZM33.7026 41.9909C33.7026 41.8169 33.7717 41.65 33.8948 41.5269C34.0179 41.4038 34.1848 41.3347 34.3589 41.3347H48.4617C48.6357 41.3347 48.8026 41.4038 48.9257 41.5269C49.0488 41.65 49.1179 41.8169 49.1179 41.9909C49.1179 42.165 49.0488 42.3319 48.9257 42.455C48.8026 42.578 48.6357 42.6472 48.4617 42.6472H34.3589C34.2721 42.6472 34.1862 42.63 34.1062 42.5966C34.0261 42.5632 33.9535 42.5143 33.8925 42.4527C33.8315 42.391 33.7833 42.3179 33.7507 42.2375C33.7181 42.1571 33.7017 42.0711 33.7026 41.9844V41.9909ZM33.7026 46.5847C33.7026 46.4106 33.7717 46.2437 33.8948 46.1206C34.0179 45.9976 34.1848 45.9284 34.3589 45.9284H48.4617C48.6357 45.9284 48.8026 45.9976 48.9257 46.1206C49.0488 46.2437 49.1179 46.4106 49.1179 46.5847C49.1179 46.7587 49.0488 46.9257 48.9257 47.0487C48.8026 47.1718 48.6357 47.2409 48.4617 47.2409H34.3589C34.2721 47.2409 34.1862 47.2238 34.1062 47.1904C34.0261 47.157 33.9535 47.108 33.8925 47.0464C33.8315 46.9848 33.7833 46.9117 33.7507 46.8313C33.7181 46.7509 33.7017 46.6649 33.7026 46.5781V46.5847Z" fill="#12B46E"/>
<path d="M23.7014 30.5H23.6489C23.2354 30.7481 22.9361 31.1488 22.8154 31.6156C22.7501 31.8501 22.7328 32.0952 22.7643 32.3365C22.7959 32.5778 22.8758 32.8103 22.9992 33.02L23.9704 34.7066C24.209 35.1258 24.6028 35.4343 25.0669 35.5657C25.531 35.6971 26.0281 35.6407 26.451 35.4087C26.4835 35.3974 26.5144 35.382 26.5429 35.3628C26.623 35.3141 26.715 35.2884 26.8087 35.2884C26.9024 35.2884 26.9944 35.3141 27.0745 35.3628C27.2648 35.4809 27.4551 35.5991 27.652 35.6975C27.7411 35.747 27.8142 35.8208 27.863 35.9102C27.9118 35.9997 27.9342 36.1011 27.9276 36.2028C27.9291 36.5801 28.0454 36.9479 28.2611 37.2574C28.4769 37.5669 28.7817 37.8033 29.1351 37.9353V48.2384L27.9604 47.6216C27.4663 47.3638 26.9029 47.2701 26.352 47.3538C25.801 47.4376 25.2909 47.6946 24.8957 48.0875C24.7965 48.1928 24.7044 48.3046 24.6201 48.4222C24.4093 48.7062 24.2581 49.0298 24.1755 49.3738C24.0929 49.7177 24.0806 50.0747 24.1395 50.4235C24.1983 50.7722 24.327 51.1055 24.5179 51.4032C24.7087 51.701 24.9578 51.9571 25.2501 52.1562L33.8929 58.325C35.2738 59.3119 36.9339 59.8315 38.631 59.8081L48.2189 59.6834C49.3879 59.6627 50.5469 59.9026 51.6117 60.3856C52.0622 60.5859 52.5493 60.691 53.0423 60.6941C53.4876 60.6941 53.9286 60.606 54.3397 60.4348C54.7508 60.2636 55.124 60.0127 55.4376 59.6966L58.2464 56.8616C58.5842 56.5217 58.8461 56.114 59.0147 55.6654C59.1833 55.2169 59.2548 54.7376 59.2244 54.2593C59.194 53.7811 59.0624 53.3147 58.8384 52.8911C58.6144 52.4675 58.303 52.0962 57.9248 51.8019L55.9035 50.1875C55.2782 49.6985 54.5922 49.2926 53.8626 48.98V31.5237C53.8591 30.6726 53.519 29.8574 52.9165 29.2561C52.3141 28.6549 51.4982 28.3164 50.647 28.3147H38.4473C38.6423 28.0264 38.753 27.6893 38.7669 27.3415C38.7809 26.9937 38.6974 26.6489 38.526 26.3459L37.5482 24.6725C37.2972 24.2441 36.8866 23.9326 36.4064 23.8063C36.1778 23.7428 35.9389 23.7252 35.7035 23.7545C35.4681 23.7838 35.2409 23.8594 35.0348 23.9769L34.9692 24.0097C34.8871 24.0595 34.7929 24.0859 34.6968 24.0859C34.6008 24.0859 34.5066 24.0595 34.4245 24.0097C34.2342 23.8916 34.0439 23.78 33.847 23.6816C33.7597 23.6306 33.6882 23.5563 33.6407 23.4671C33.5932 23.3779 33.5714 23.2772 33.5779 23.1763C33.5797 22.6848 33.3866 22.2127 33.0409 21.8634C32.6953 21.5141 32.2253 21.316 31.7339 21.3125H29.7651C29.5184 21.3142 29.2744 21.3647 29.0473 21.4611C28.8202 21.5575 28.6144 21.6979 28.4417 21.8742C28.2691 22.0505 28.1331 22.2592 28.0414 22.4883C27.9498 22.7174 27.9044 22.9624 27.9079 23.2091C27.9093 23.3038 27.885 23.3971 27.8376 23.4791C27.7902 23.5611 27.7216 23.6288 27.6389 23.675C27.4398 23.7748 27.2469 23.8866 27.0614 24.0097C26.98 24.0582 26.887 24.0839 26.7923 24.0839C26.6976 24.0839 26.6046 24.0582 26.5232 24.0097L26.451 23.9703C26.0268 23.7451 25.5319 23.6925 25.0697 23.8233C24.6076 23.9541 24.2137 24.2583 23.9704 24.6725L22.9992 26.3525C22.8758 26.5622 22.7959 26.7947 22.7643 27.036C22.7328 27.2773 22.7501 27.5224 22.8154 27.7569C22.8722 27.9876 22.9746 28.2046 23.1166 28.3951C23.2586 28.5856 23.4374 28.7457 23.6423 28.8659L23.7014 28.9053C23.7875 28.9581 23.8582 29.0325 23.9066 29.1212C23.955 29.2098 23.9792 29.3097 23.977 29.4106C23.977 29.5156 23.977 29.6141 23.977 29.7125C23.977 29.8109 23.977 29.9094 23.977 29.9881C23.9791 30.09 23.9548 30.1906 23.9065 30.2803C23.8582 30.37 23.7875 30.4457 23.7014 30.5ZM55.0964 51.2375L57.1373 52.8125C57.3689 52.9934 57.5595 53.2213 57.6966 53.4812C57.8338 53.7411 57.9143 54.0271 57.9329 54.3203C57.9515 54.6136 57.9078 54.9075 57.8046 55.1826C57.7014 55.4577 57.541 55.7079 57.3342 55.9166L54.5254 58.7516C54.224 59.0539 53.8366 59.2559 53.4161 59.3299C52.9956 59.4039 52.5626 59.3463 52.176 59.165C50.9774 58.6257 49.6776 58.3482 48.3632 58.3512H48.2189L38.6048 58.4759C37.1935 58.494 35.8135 58.0593 34.6673 57.2356L25.9917 51.0537C25.7108 50.851 25.5214 50.5455 25.4649 50.2038C25.4083 49.862 25.4892 49.5118 25.6898 49.2294C25.7305 49.1725 25.7767 49.1198 25.8276 49.0719C26.0241 48.877 26.2771 48.7493 26.5505 48.7068C26.824 48.6644 27.1038 48.7095 27.3501 48.8356L33.7814 52.2219C35.311 53.0217 37.0584 53.3049 38.7623 53.0291C39.0565 53.4653 39.4351 53.8381 39.8758 54.1255C40.3166 54.413 40.8104 54.6092 41.3282 54.7025C43.6022 55.243 45.9186 55.5856 48.2517 55.7262C48.3378 55.7301 48.4239 55.717 48.5051 55.6876C48.5862 55.6582 48.6607 55.6131 48.7244 55.5549C48.788 55.4967 48.8396 55.4266 48.8762 55.3484C48.9128 55.2703 48.9336 55.1857 48.9375 55.0995C48.9413 55.0134 48.9282 54.9273 48.8988 54.8461C48.8694 54.765 48.8243 54.6905 48.7661 54.6268C48.7079 54.5632 48.6378 54.5116 48.5596 54.475C48.4815 54.4384 48.3969 54.4176 48.3107 54.4137C46.0694 54.2648 43.8439 53.9333 41.6564 53.4228C40.4226 53.1275 39.7467 52.5172 39.7467 51.7166C39.7438 51.4084 39.8354 51.1068 40.009 50.8522C40.1826 50.5977 40.43 50.4023 40.7179 50.2925C41.4595 50.1153 44.7276 49.8462 49.6757 49.5509C51.6278 49.4334 53.5556 50.0332 55.0964 51.2375ZM29.1351 32.2456C28.7452 31.9978 28.4176 31.6637 28.1775 31.269C27.9374 30.8744 27.7913 30.4298 27.7505 29.9696C27.7097 29.5095 27.7753 29.0461 27.9421 28.6154C28.109 28.1846 28.3727 27.798 28.7129 27.4854C29.0531 27.1729 29.4606 26.9428 29.9039 26.8129C30.3472 26.683 30.8144 26.6568 31.2695 26.7363C31.7245 26.8158 32.1552 26.9989 32.5282 27.2715C32.9011 27.544 33.2064 27.8987 33.4204 28.3081H32.3442C31.4936 28.3099 30.6784 28.6485 30.0769 29.25C29.4755 29.8514 29.1368 30.6666 29.1351 31.5172V32.2456ZM50.647 29.6206C51.1506 29.6206 51.6337 29.8202 51.9904 30.1757C52.3471 30.5312 52.5484 31.0136 52.5501 31.5172V48.5469C51.5897 48.2799 50.5926 48.1691 49.597 48.2188C45.9942 48.4353 41.4726 48.7437 40.4095 48.9997C39.8359 49.1773 39.3347 49.5348 38.9801 50.0194C38.6256 50.504 38.4364 51.0899 38.4407 51.6903V51.7362C37.0686 51.9286 35.6705 51.6925 34.4376 51.0603L30.5001 48.98V31.5237C30.5018 31.0213 30.7022 30.5399 31.0575 30.1846C31.4128 29.8293 31.8942 29.6289 32.3967 29.6272L50.647 29.6206ZM25.2829 29.7125C25.2829 29.6469 25.2829 29.5813 25.2829 29.4894C25.3004 29.1537 25.2274 28.8195 25.0716 28.5216C24.9157 28.2238 24.6827 27.9733 24.397 27.7962L24.3379 27.7503C24.2128 27.6788 24.1211 27.5606 24.083 27.4216C24.0449 27.2826 24.0634 27.1341 24.1345 27.0087L25.1057 25.3288C25.1411 25.2667 25.1884 25.2123 25.245 25.1687C25.3016 25.1251 25.3662 25.0933 25.4353 25.0749C25.5043 25.0566 25.5763 25.0522 25.647 25.062C25.7177 25.0718 25.7858 25.0955 25.8473 25.1319H25.9129C26.202 25.2942 26.5295 25.3757 26.8609 25.3676C27.1924 25.3595 27.5155 25.2622 27.7964 25.0859C27.9412 24.9883 28.0925 24.9006 28.2492 24.8234C28.5554 24.6646 28.8107 24.4229 28.9859 24.1258C29.1612 23.8287 29.2493 23.4882 29.2401 23.1434C29.2469 23.0036 29.3072 22.8717 29.4086 22.7751C29.5101 22.6786 29.6448 22.6248 29.7848 22.625H31.7535C31.8279 22.6267 31.9013 22.6432 31.9692 22.6736C32.0371 22.7041 32.0982 22.7478 32.149 22.8022C32.1997 22.8567 32.2391 22.9207 32.2647 22.9906C32.2904 23.0604 32.3018 23.1347 32.2982 23.2091C32.2949 23.5475 32.3859 23.8802 32.5609 24.17C32.7359 24.4597 32.9881 24.6951 33.2892 24.8497C33.4488 24.9293 33.6043 25.017 33.7551 25.1122C34.0324 25.2914 34.3537 25.3906 34.6838 25.3987C35.0138 25.4068 35.3397 25.3235 35.6254 25.1581H35.691C35.7514 25.1214 35.8185 25.0973 35.8885 25.0871C35.9584 25.077 36.0296 25.081 36.0979 25.0991C36.239 25.1367 36.3593 25.2287 36.4326 25.355L37.4039 27.0284C37.4405 27.0942 37.4637 27.1665 37.472 27.2413C37.4803 27.3161 37.4735 27.3919 37.4521 27.464C37.4307 27.5362 37.3951 27.6033 37.3474 27.6615C37.2996 27.7197 37.2408 27.7677 37.1742 27.8028C36.9446 27.9377 36.7474 28.1214 36.5967 28.3409H34.8445C34.6113 27.6563 34.2098 27.0412 33.6769 26.5521C33.1441 26.063 32.4969 25.7156 31.7948 25.5418C31.0928 25.368 30.3583 25.3733 29.6588 25.5572C28.9593 25.7412 28.3172 26.0979 27.7915 26.5946C27.2657 27.0914 26.8732 27.7122 26.6499 28.4001C26.4266 29.0881 26.3796 29.8211 26.5134 30.5319C26.6471 31.2427 26.9573 31.9085 27.4154 32.4682C27.8734 33.028 28.4648 33.4636 29.1351 33.7353V35.6581C28.9885 35.2057 28.6705 34.8288 28.2492 34.6081C28.091 34.5273 27.9377 34.4374 27.7898 34.3391C27.5122 34.1571 27.1906 34.0536 26.8589 34.0398C26.5273 34.0259 26.1981 34.1021 25.9064 34.2603L25.8276 34.2997C25.703 34.3713 25.5552 34.3909 25.4163 34.354C25.2774 34.3171 25.1587 34.2268 25.086 34.1028L24.1345 32.4163C24.0634 32.2909 24.0449 32.1424 24.083 32.0034C24.1211 31.8644 24.2128 31.7462 24.3379 31.6747L24.3904 31.6353C24.6812 31.4546 24.9181 31.1991 25.0763 30.8955C25.2345 30.5918 25.3081 30.2512 25.2895 29.9094C25.2829 29.8438 25.2829 29.7781 25.2829 29.7125ZM33.7026 32.8034C33.7026 32.6294 33.7717 32.4625 33.8948 32.3394C34.0179 32.2163 34.1848 32.1472 34.3589 32.1472H48.4617C48.6357 32.1472 48.8026 32.2163 48.9257 32.3394C49.0488 32.4625 49.1179 32.6294 49.1179 32.8034C49.1179 32.9775 49.0488 33.1444 48.9257 33.2675C48.8026 33.3905 48.6357 33.4597 48.4617 33.4597H34.3589C34.1848 33.4597 34.0179 33.3905 33.8948 33.2675C33.7717 33.1444 33.7026 32.9775 33.7026 32.8034ZM33.7026 37.3972C33.7026 37.2231 33.7717 37.0562 33.8948 36.9331C34.0179 36.8101 34.1848 36.7409 34.3589 36.7409H48.4617C48.6357 36.7409 48.8026 36.8101 48.9257 36.9331C49.0488 37.0562 49.1179 37.2231 49.1179 37.3972C49.1179 37.5712 49.0488 37.7382 48.9257 37.8612C48.8026 37.9843 48.6357 38.0534 48.4617 38.0534H34.3589C34.2721 38.0534 34.1862 38.0363 34.1062 38.0029C34.0261 37.9695 33.9535 37.9205 33.8925 37.8589C33.8315 37.7973 33.7833 37.7242 33.7507 37.6438C33.7181 37.5634 33.7017 37.4774 33.7026 37.3906V37.3972ZM33.7026 41.9909C33.7026 41.8169 33.7717 41.65 33.8948 41.5269C34.0179 41.4038 34.1848 41.3347 34.3589 41.3347H48.4617C48.6357 41.3347 48.8026 41.4038 48.9257 41.5269C49.0488 41.65 49.1179 41.8169 49.1179 41.9909C49.1179 42.165 49.0488 42.3319 48.9257 42.455C48.8026 42.578 48.6357 42.6472 48.4617 42.6472H34.3589C34.2721 42.6472 34.1862 42.63 34.1062 42.5966C34.0261 42.5632 33.9535 42.5143 33.8925 42.4527C33.8315 42.391 33.7833 42.3179 33.7507 42.2375C33.7181 42.1571 33.7017 42.0711 33.7026 41.9844V41.9909ZM33.7026 46.5847C33.7026 46.4106 33.7717 46.2437 33.8948 46.1206C34.0179 45.9976 34.1848 45.9284 34.3589 45.9284H48.4617C48.6357 45.9284 48.8026 45.9976 48.9257 46.1206C49.0488 46.2437 49.1179 46.4106 49.1179 46.5847C49.1179 46.7587 49.0488 46.9257 48.9257 47.0487C48.8026 47.1718 48.6357 47.2409 48.4617 47.2409H34.3589C34.2721 47.2409 34.1862 47.2238 34.1062 47.1904C34.0261 47.157 33.9535 47.108 33.8925 47.0464C33.8315 46.9848 33.7833 46.9117 33.7507 46.8313C33.7181 46.7509 33.7017 46.6649 33.7026 46.5781V46.5847Z" stroke="#12B46E" stroke-width="0.8" mask="url(#path-3-outside-1_135_80)"/>
</svg>
