<svg width="82" height="82" viewBox="0 0 82 82" fill="none" xmlns="http://www.w3.org/2000/svg">
<rect width="82" height="82" rx="8" fill="#EBFFF6" fill-opacity="0.1"/>
<path d="M24.375 34.3273C24.557 30.6523 25.1012 28.3597 26.7322 26.7322C28.3597 25.1012 30.6523 24.557 34.3273 24.375M57.625 34.3273C57.443 30.6523 56.8987 28.3597 55.2677 26.7322C53.6402 25.1012 51.3477 24.557 47.6727 24.375M47.6727 57.625C51.3477 57.443 53.6402 56.8987 55.2677 55.2677C56.8987 53.6402 57.443 51.3477 57.625 47.6727M34.3273 57.625C30.6523 57.443 28.3597 56.8987 26.7322 55.2677C25.1012 53.6402 24.557 51.3477 24.375 47.6727M50.625 49.75L50.2715 48.2642C50.1277 47.6614 49.8265 47.1074 49.3985 46.6592C48.9705 46.2109 48.4311 45.8843 47.8355 45.7127L43.625 44.4982V41.931C45.193 40.8722 46.25 38.893 46.25 36.625C46.25 33.2423 43.898 30.5 41 30.5C38.1003 30.5 35.75 33.2423 35.75 36.625C35.75 38.893 36.8052 40.8722 38.375 41.931V44.4982L34.1908 45.7233C33.613 45.8924 33.0886 46.2077 32.6683 46.6388C32.2481 47.0698 31.946 47.6019 31.7915 48.1837L31.375 49.75" stroke="#12B46E" stroke-width="2.5" stroke-linecap="round" stroke-linejoin="round"/>
</svg>
