<svg width="82" height="82" viewBox="0 0 82 82" fill="none" xmlns="http://www.w3.org/2000/svg">
<rect width="82" height="82" rx="8" fill="#EBFFF6" fill-opacity="0.1"/>
<path d="M48 25.25H53.25C54.1783 25.25 55.0685 25.6187 55.7249 26.2751C56.3813 26.9315 56.75 27.8217 56.75 28.75V34M34 56.75H28.75C27.8217 56.75 26.9315 56.3813 26.2751 55.7249C25.6187 55.0685 25.25 54.1783 25.25 53.25V48M39.25 27V37.5C39.25 39.4338 35.7237 41 31.375 41C27.0263 41 23.5 39.4338 23.5 37.5V27M54.125 44.5V48H47.125V44.5C47.125 43.5717 47.4937 42.6815 48.1501 42.0251C48.8065 41.3687 49.6967 41 50.625 41C51.5533 41 52.4435 41.3687 53.0999 42.0251C53.7563 42.6815 54.125 43.5717 54.125 44.5ZM42.75 48H58.5V58.5H42.75V48Z" stroke="#12B46E" stroke-width="2.5" stroke-linecap="round" stroke-linejoin="round"/>
<path d="M39.25 32.25C39.25 34.1838 35.7237 35.75 31.375 35.75C27.0263 35.75 23.5 34.1838 23.5 32.25M39.25 27C39.25 28.9338 35.7237 30.5 31.375 30.5C27.0263 30.5 23.5 28.9338 23.5 27C23.5 25.0662 27.0263 23.5 31.375 23.5C35.7237 23.5 39.25 25.0662 39.25 27Z" stroke="#12B46E" stroke-width="2.5" stroke-linecap="round" stroke-linejoin="round"/>
</svg>
