<svg width="82" height="82" viewBox="0 0 82 82" fill="none" xmlns="http://www.w3.org/2000/svg">
<rect width="82" height="82" rx="8" fill="#EBFFF6" fill-opacity="0.1"/>
<path d="M29.3845 41.7875C25.3813 41.7875 22.1001 38.5062 22.1001 34.5031C22.1001 30.5 25.3813 27.2187 29.3845 27.2187C30.5657 27.2187 31.6157 27.4812 32.6001 28.0062C32.7313 24.5937 35.4876 21.9031 38.9001 21.9031C41.7876 21.9031 44.2157 23.8062 44.9376 26.4968C45.8563 25.4468 47.1688 24.7906 48.6782 24.7906C51.3689 24.7906 53.5345 26.9562 53.5345 29.6468C53.5345 30.0406 53.4689 30.3687 53.4032 30.7625C53.6657 30.6968 53.9282 30.6968 54.1907 30.6968C57.2751 30.6968 59.7688 33.1906 59.7688 36.275C59.7688 39.3593 57.2751 41.8531 54.1907 41.8531" stroke="black" stroke-width="1.5" stroke-miterlimit="10" stroke-linecap="round" stroke-linejoin="round"/>
<path d="M50.1221 39.8187H34.5033C33.3221 39.8187 32.4033 38.8343 32.4033 37.7187C32.4033 36.5374 33.3877 35.6187 34.5033 35.6187H48.9408C49.5971 35.6187 50.1221 36.1437 50.1221 36.7999V39.8187Z" stroke="black" stroke-width="1.5" stroke-miterlimit="10" stroke-linecap="round" stroke-linejoin="round"/>
<path d="M34.5034 39.8187H50.1222H50.7784C51.4347 39.8187 51.9597 40.3437 51.9597 41V43.8218" stroke="black" stroke-width="1.5" stroke-miterlimit="10" stroke-linecap="round" stroke-linejoin="round"/>
<path d="M51.9596 47.8906V51.5C51.9596 52.1562 51.4346 52.6812 50.7783 52.6812H34.5033C33.3221 52.6812 32.4033 51.6969 32.4033 50.5812V37.7188" stroke="black" stroke-width="1.5" stroke-miterlimit="10" stroke-linecap="round" stroke-linejoin="round"/>
<path d="M52.6159 47.8905H48.5472C48.0222 47.8905 47.6284 47.4968 47.6284 46.9718V44.7405C47.6284 44.2155 48.0222 43.8218 48.5472 43.8218H52.6159C53.1409 43.8218 53.5347 44.2155 53.5347 44.7405V46.9718C53.5347 47.4968 53.1409 47.8905 52.6159 47.8905Z" stroke="black" stroke-width="1.5" stroke-miterlimit="10" stroke-linecap="round" stroke-linejoin="round"/>
<path d="M49.5312 45.8562H50.5812" stroke="black" stroke-width="1.5" stroke-miterlimit="10" stroke-linecap="round" stroke-linejoin="round"/>
<path d="M39.0315 54.7156V58.4562H28.9253" stroke="black" stroke-width="1.5" stroke-miterlimit="10" stroke-linecap="round" stroke-linejoin="round"/>
<path d="M28.9253 56.8156H25.644V60.0968H28.9253V56.8156Z" stroke="black" stroke-width="1.5" stroke-miterlimit="10" stroke-linecap="round" stroke-linejoin="round"/>
<path d="M43.4282 54.7156V58.4562H53.4688" stroke="black" stroke-width="1.5" stroke-miterlimit="10" stroke-linecap="round" stroke-linejoin="round"/>
<path d="M53.5347 60.1337L56.8159 60.1337L56.8159 56.8524L53.5347 56.8524L53.5347 60.1337Z" stroke="black" stroke-width="1.5" stroke-miterlimit="10" stroke-linecap="round" stroke-linejoin="round"/>
<path d="M29.3845 41.7875C25.3813 41.7875 22.1001 38.5062 22.1001 34.5031C22.1001 30.5 25.3813 27.2187 29.3845 27.2187C30.5657 27.2187 31.6157 27.4812 32.6001 28.0062C32.7313 24.5937 35.4876 21.9031 38.9001 21.9031C41.7876 21.9031 44.2157 23.8062 44.9376 26.4968C45.8563 25.4468 47.1688 24.7906 48.6782 24.7906C51.3689 24.7906 53.5345 26.9562 53.5345 29.6468C53.5345 30.0406 53.4689 30.3687 53.4032 30.7625C53.6657 30.6968 53.9282 30.6968 54.1907 30.6968C57.2751 30.6968 59.7688 33.1906 59.7688 36.275C59.7688 39.3593 57.2751 41.8531 54.1907 41.8531" stroke="#12B46E" stroke-width="2.5" stroke-miterlimit="10" stroke-linecap="round" stroke-linejoin="round"/>
<path d="M50.1221 39.8187H34.5033C33.3221 39.8187 32.4033 38.8343 32.4033 37.7187C32.4033 36.5374 33.3877 35.6187 34.5033 35.6187H48.9408C49.5971 35.6187 50.1221 36.1437 50.1221 36.7999V39.8187Z" stroke="#12B46E" stroke-width="2.5" stroke-miterlimit="10" stroke-linecap="round" stroke-linejoin="round"/>
<path d="M34.5034 39.8187H50.1222H50.7784C51.4347 39.8187 51.9597 40.3437 51.9597 41V43.8218" stroke="#12B46E" stroke-width="1.5" stroke-miterlimit="10" stroke-linecap="round" stroke-linejoin="round"/>
<path d="M51.9596 47.8906V51.5C51.9596 52.1562 51.4346 52.6812 50.7783 52.6812H34.5033C33.3221 52.6812 32.4033 51.6969 32.4033 50.5812V37.7188" stroke="#12B46E" stroke-width="1.5" stroke-miterlimit="10" stroke-linecap="round" stroke-linejoin="round"/>
<path d="M52.6159 47.8905H48.5472C48.0222 47.8905 47.6284 47.4968 47.6284 46.9718V44.7405C47.6284 44.2155 48.0222 43.8218 48.5472 43.8218H52.6159C53.1409 43.8218 53.5347 44.2155 53.5347 44.7405V46.9718C53.5347 47.4968 53.1409 47.8905 52.6159 47.8905Z" stroke="#12B46E" stroke-width="1.5" stroke-miterlimit="10" stroke-linecap="round" stroke-linejoin="round"/>
<path d="M49.5312 45.8562H50.5812" stroke="#12B46E" stroke-width="1.5" stroke-miterlimit="10" stroke-linecap="round" stroke-linejoin="round"/>
<path d="M39.0315 54.7156V58.4562H28.9253" stroke="#12B46E" stroke-width="1.5" stroke-miterlimit="10" stroke-linecap="round" stroke-linejoin="round"/>
<path d="M28.9253 56.8156H25.644V60.0968H28.9253V56.8156Z" stroke="#12B46E" stroke-width="1.5" stroke-miterlimit="10" stroke-linecap="round" stroke-linejoin="round"/>
<path d="M43.4282 54.7156V58.4562H53.4688" stroke="#12B46E" stroke-width="1.5" stroke-miterlimit="10" stroke-linecap="round" stroke-linejoin="round"/>
<path d="M53.5347 60.1337L56.8159 60.1337L56.8159 56.8524L53.5347 56.8524L53.5347 60.1337Z" stroke="#12B46E" stroke-width="1.5" stroke-miterlimit="10" stroke-linecap="round" stroke-linejoin="round"/>
</svg>
