<svg width="32" height="33" viewBox="0 0 32 33" fill="none" xmlns="http://www.w3.org/2000/svg">
<path d="M16 10.3125C14.8133 10.3125 13.6533 10.6644 12.6666 11.3237C11.6799 11.983 10.9108 12.92 10.4567 14.0164C10.0026 15.1128 9.88378 16.3192 10.1153 17.483C10.3468 18.6469 10.9182 19.716 11.7574 20.5551C12.5965 21.3943 13.6656 21.9657 14.8295 22.1972C15.9933 22.4287 17.1997 22.3099 18.2961 21.8558C19.3925 21.4017 20.3295 20.6326 20.9888 19.6459C21.6481 18.6592 22 17.4992 22 16.3125C21.9983 14.7217 21.3657 13.1965 20.2408 12.0717C19.116 10.9468 17.5908 10.3142 16 10.3125ZM16 20.3125C15.2089 20.3125 14.4355 20.0779 13.7777 19.6384C13.1199 19.1989 12.6072 18.5741 12.3045 17.8432C12.0017 17.1123 11.9225 16.3081 12.0769 15.5321C12.2312 14.7562 12.6122 14.0435 13.1716 13.4841C13.731 12.9247 14.4437 12.5437 15.2196 12.3894C15.9956 12.235 16.7998 12.3142 17.5307 12.617C18.2616 12.9197 18.8864 13.4324 19.3259 14.0902C19.7654 14.748 20 15.5214 20 16.3125C20 17.3734 19.5786 18.3908 18.8284 19.1409C18.0783 19.8911 17.0609 20.3125 16 20.3125ZM22 3.3125H10C8.14409 3.31449 6.36477 4.05262 5.05245 5.36495C3.74012 6.67727 3.00199 8.45659 3 10.3125V22.3125C3.00199 24.1684 3.74012 25.9477 5.05245 27.2601C6.36477 28.5724 8.14409 29.3105 10 29.3125H22C23.8559 29.3105 25.6352 28.5724 26.9476 27.2601C28.2599 25.9477 28.998 24.1684 29 22.3125V10.3125C28.998 8.45659 28.2599 6.67727 26.9476 5.36495C25.6352 4.05262 23.8559 3.31449 22 3.3125ZM27 22.3125C27 23.6386 26.4732 24.9104 25.5355 25.848C24.5979 26.7857 23.3261 27.3125 22 27.3125H10C8.67392 27.3125 7.40215 26.7857 6.46447 25.848C5.52678 24.9104 5 23.6386 5 22.3125V10.3125C5 8.98642 5.52678 7.71465 6.46447 6.77697C7.40215 5.83928 8.67392 5.3125 10 5.3125H22C23.3261 5.3125 24.5979 5.83928 25.5355 6.77697C26.4732 7.71465 27 8.98642 27 10.3125V22.3125ZM24 9.8125C24 10.1092 23.912 10.3992 23.7472 10.6459C23.5824 10.8925 23.3481 11.0848 23.074 11.1983C22.7999 11.3119 22.4983 11.3416 22.2074 11.2837C21.9164 11.2258 21.6491 11.0829 21.4393 10.8732C21.2296 10.6634 21.0867 10.3961 21.0288 10.1051C20.9709 9.81416 21.0007 9.51256 21.1142 9.23847C21.2277 8.96439 21.42 8.73012 21.6666 8.5653C21.9133 8.40047 22.2033 8.3125 22.5 8.3125C22.8978 8.3125 23.2794 8.47054 23.5607 8.75184C23.842 9.03314 24 9.41468 24 9.8125Z" fill="#FEFDFE"/>
</svg>
