<svg width="32" height="33" viewBox="0 0 32 33" fill="none" xmlns="http://www.w3.org/2000/svg">
<path d="M27 3.3125H5C4.46957 3.3125 3.96086 3.52321 3.58579 3.89829C3.21071 4.27336 3 4.78207 3 5.3125V27.3125C3 27.8429 3.21071 28.3516 3.58579 28.7267C3.96086 29.1018 4.46957 29.3125 5 29.3125H27C27.5304 29.3125 28.0391 29.1018 28.4142 28.7267C28.7893 28.3516 29 27.8429 29 27.3125V5.3125C29 4.78207 28.7893 4.27336 28.4142 3.89829C28.0391 3.52321 27.5304 3.3125 27 3.3125ZM27 27.3125H5V5.3125H27V27.3125ZM12 14.3125V22.3125C12 22.5777 11.8946 22.8321 11.7071 23.0196C11.5196 23.2071 11.2652 23.3125 11 23.3125C10.7348 23.3125 10.4804 23.2071 10.2929 23.0196C10.1054 22.8321 10 22.5777 10 22.3125V14.3125C10 14.0473 10.1054 13.7929 10.2929 13.6054C10.4804 13.4179 10.7348 13.3125 11 13.3125C11.2652 13.3125 11.5196 13.4179 11.7071 13.6054C11.8946 13.7929 12 14.0473 12 14.3125ZM23 17.8125V22.3125C23 22.5777 22.8946 22.8321 22.7071 23.0196C22.5196 23.2071 22.2652 23.3125 22 23.3125C21.7348 23.3125 21.4804 23.2071 21.2929 23.0196C21.1054 22.8321 21 22.5777 21 22.3125V17.8125C21 17.1495 20.7366 16.5136 20.2678 16.0447C19.7989 15.5759 19.163 15.3125 18.5 15.3125C17.837 15.3125 17.2011 15.5759 16.7322 16.0447C16.2634 16.5136 16 17.1495 16 17.8125V22.3125C16 22.5777 15.8946 22.8321 15.7071 23.0196C15.5196 23.2071 15.2652 23.3125 15 23.3125C14.7348 23.3125 14.4804 23.2071 14.2929 23.0196C14.1054 22.8321 14 22.5777 14 22.3125V14.3125C14.0012 14.0676 14.0923 13.8316 14.256 13.6494C14.4197 13.4671 14.6446 13.3513 14.888 13.3239C15.1314 13.2964 15.3764 13.3593 15.5765 13.5005C15.7767 13.6417 15.918 13.8515 15.9738 14.09C16.6502 13.6311 17.4389 13.3651 18.2552 13.3206C19.0714 13.2762 19.8844 13.4549 20.6067 13.8376C21.329 14.2203 21.9335 14.7925 22.3551 15.4928C22.7768 16.1931 22.9997 16.995 23 17.8125ZM12.5 10.8125C12.5 11.1092 12.412 11.3992 12.2472 11.6459C12.0824 11.8925 11.8481 12.0848 11.574 12.1983C11.2999 12.3119 10.9983 12.3416 10.7074 12.2837C10.4164 12.2258 10.1491 12.0829 9.93934 11.8732C9.72956 11.6634 9.5867 11.3961 9.52882 11.1051C9.47094 10.8142 9.50065 10.5126 9.61418 10.2385C9.72771 9.96439 9.91997 9.73012 10.1666 9.5653C10.4133 9.40047 10.7033 9.3125 11 9.3125C11.3978 9.3125 11.7794 9.47054 12.0607 9.75184C12.342 10.0331 12.5 10.4147 12.5 10.8125Z" fill="#FEFDFE"/>
</svg>
