<svg width="32" height="33" viewBox="0 0 32 33" fill="none" xmlns="http://www.w3.org/2000/svg">
<path d="M26.8435 26.7763L19.0185 14.4788L26.7398 5.985C26.9144 5.78815 27.0044 5.53041 26.9903 5.26765C26.9761 5.00489 26.859 4.75829 26.6642 4.58132C26.4695 4.40435 26.2129 4.31126 25.95 4.32224C25.687 4.33323 25.4391 4.4474 25.2598 4.64L17.9048 12.73L12.8435 4.77625C12.7533 4.63419 12.6286 4.51721 12.4811 4.43615C12.3336 4.35508 12.1681 4.31255 11.9998 4.3125H5.99976C5.82046 4.31241 5.64444 4.36053 5.49012 4.45182C5.3358 4.54312 5.20887 4.67422 5.12261 4.8314C5.03635 4.98859 4.99394 5.16607 4.99981 5.34528C5.00569 5.52448 5.05964 5.6988 5.15601 5.85L12.981 18.1462L5.25976 26.6462C5.1696 26.7431 5.09955 26.8569 5.05369 26.981C5.00782 27.1052 4.98705 27.2372 4.99257 27.3694C4.99809 27.5016 5.02981 27.6314 5.08587 27.7513C5.14193 27.8711 5.22122 27.9787 5.31915 28.0677C5.41708 28.1567 5.53171 28.2254 5.65637 28.2697C5.78104 28.3141 5.91328 28.3333 6.04542 28.3262C6.17756 28.3191 6.30697 28.2858 6.42616 28.2283C6.54535 28.1708 6.65194 28.0902 6.73976 27.9912L14.0948 19.9013L19.156 27.855C19.247 27.9959 19.372 28.1116 19.5194 28.1916C19.6669 28.2715 19.832 28.3131 19.9998 28.3125H25.9998C26.1789 28.3124 26.3547 28.2643 26.5088 28.1731C26.6629 28.0818 26.7897 27.9509 26.876 27.7939C26.9622 27.6369 27.0047 27.4597 26.9989 27.2806C26.9932 27.1016 26.9396 26.9274 26.8435 26.7763ZM20.5485 26.3125L7.82101 6.3125H11.446L24.1785 26.3125H20.5485Z" fill="#FEFDFE"/>
</svg>
