<svg width="32" height="33" viewBox="0 0 32 33" fill="none" xmlns="http://www.w3.org/2000/svg">
<path d="M20.555 15.48L14.555 11.48C14.4044 11.3795 14.2293 11.3218 14.0484 11.313C13.8675 11.3043 13.6877 11.3448 13.528 11.4302C13.3684 11.5157 13.2349 11.6429 13.1419 11.7983C13.0489 11.9537 12.9999 12.1314 13 12.3125V20.3125C12.9999 20.4936 13.0489 20.6713 13.1419 20.8267C13.2349 20.9821 13.3684 21.1093 13.528 21.1948C13.6877 21.2802 13.8675 21.3207 14.0484 21.312C14.2293 21.3032 14.4044 21.2455 14.555 21.145L20.555 17.145C20.6922 17.0537 20.8047 16.93 20.8825 16.7847C20.9603 16.6395 21.001 16.4773 21.001 16.3125C21.001 16.1477 20.9603 15.9855 20.8825 15.8403C20.8047 15.6951 20.6922 15.5713 20.555 15.48ZM15 18.4438V14.1875L18.1975 16.3125L15 18.4438ZM29.2913 9.0025C29.1735 8.54169 28.9478 8.11548 28.6329 7.75904C28.318 7.40261 27.9228 7.12616 27.48 6.9525C23.195 5.2975 16.375 5.3125 16 5.3125C15.625 5.3125 8.805 5.2975 4.52 6.9525C4.0772 7.12616 3.68204 7.40261 3.36712 7.75904C3.05219 8.11548 2.82653 8.54169 2.70875 9.0025C2.385 10.25 2 12.53 2 16.3125C2 20.095 2.385 22.375 2.70875 23.6225C2.82636 24.0836 3.05194 24.51 3.36687 24.8667C3.68181 25.2233 4.07706 25.5 4.52 25.6738C8.625 27.2575 15.05 27.3125 15.9175 27.3125H16.0825C16.95 27.3125 23.3787 27.2575 27.48 25.6738C27.9229 25.5 28.3182 25.2233 28.6331 24.8667C28.9481 24.51 29.1736 24.0836 29.2913 23.6225C29.615 22.3725 30 20.095 30 16.3125C30 12.53 29.615 10.25 29.2913 9.0025ZM27.355 23.1275C27.3169 23.2809 27.243 23.423 27.1394 23.5423C27.0357 23.6616 26.9053 23.7546 26.7588 23.8138C22.8025 25.3413 16.0738 25.3138 16.0088 25.3138H16C15.9325 25.3138 9.20875 25.3388 5.25 23.8138C5.10346 23.7546 4.97303 23.6616 4.86938 23.5423C4.76574 23.423 4.69184 23.2809 4.65375 23.1275C4.35 21.9863 4 19.8838 4 16.3125C4 12.7413 4.35 10.6388 4.645 9.50376C4.68239 9.34948 4.75596 9.20632 4.85965 9.08612C4.96333 8.96592 5.09413 8.87213 5.24125 8.81251C9.05625 7.33876 15.4487 7.31251 15.9725 7.31251H16.0063C16.0738 7.31251 22.8038 7.29 26.7563 8.81251C26.9028 8.87165 27.0332 8.96467 27.1369 9.08396C27.2405 9.20324 27.3144 9.34539 27.3525 9.49875C27.65 10.6388 28 12.7413 28 16.3125C28 19.8838 27.65 21.9863 27.355 23.1213V23.1275Z" fill="#FEFDFE"/>
</svg>
